{"glyphs":{"0":{"ha":1229,"x_min":0,"x_max":0,"o":"m 42 694 b 615 -28 42 261 283 -28 b 1188 694 947 -28 1188 261 b 615 1417 1188 1128 947 1417 b 42 694 283 1417 42 1128 z m 528 1046 b 614 1371 528 1343 567 1371 b 700 1046 661 1371 700 1343 l 700 342 b 614 18 700 44 661 18 b 528 342 567 18 528 44 z "},"1":{"ha":565,"x_min":0,"x_max":0,"o":"m 42 1232 b 189 1107 42 1154 114 1107 b 478 1317 325 1107 413 1226 b 43 660 376 1046 43 953 l 43 0 l 524 0 l 524 1417 b 208 1263 444 1335 300 1263 b 81 1311 138 1263 111 1288 b 42 1232 56 1296 42 1268 z "},"2":{"ha":1179,"x_min":0,"x_max":0,"o":"m 151 0 l 1149 0 l 1149 319 b 1039 357 1126 343 1088 357 b 286 65 850 357 531 65 l 189 65 b 1151 882 317 215 1151 349 b 586 1417 1151 1238 890 1417 b 43 999 301 1417 43 1261 b 333 694 43 815 197 694 b 571 928 458 694 593 800 b 435 1056 503 915 435 964 b 724 1346 435 1208 563 1346 b 888 1183 819 1346 888 1263 b 28 193 888 626 28 646 b 151 0 28 68 96 0 z "},"3":{"ha":1168,"x_min":0,"x_max":0,"o":"m 550 -28 b 1126 479 843 -28 1126 158 b 633 943 1126 774 938 943 b 1088 1389 876 972 1115 1163 l 107 1389 b 385 1053 67 1231 217 1053 b 919 1340 686 1053 772 1340 b 347 950 919 1147 718 946 l 347 919 b 668 515 436 918 658 839 b 411 96 671 424 619 96 b 276 249 308 96 276 186 b 497 519 276 369 396 519 b 560 508 522 519 535 513 b 322 756 603 624 496 756 b 28 439 146 756 28 615 b 550 -28 28 186 231 -28 z "},"4":{"ha":1100,"x_min":0,"x_max":0,"o":"m 511 229 l 511 0 l 985 0 l 985 229 l 1058 229 l 1058 278 l 985 278 l 985 694 l 511 694 l 511 278 l 418 278 b 228 457 297 278 228 358 b 878 1206 228 707 878 836 b 797 1389 878 1272 856 1324 l 314 1389 b 388 1186 365 1356 388 1269 b 0 229 388 881 203 507 z "},"5":{"ha":1133,"x_min":0,"x_max":0,"o":"m 521 -28 b 1092 525 824 -28 1092 188 b 556 1044 1092 838 871 1044 b 169 921 403 1044 272 992 l 169 1339 b 782 1099 308 1339 515 1099 b 1061 1314 931 1099 1061 1188 b 1025 1389 1061 1344 1051 1371 l 92 1390 l 92 797 b 328 881 132 835 251 881 b 607 503 522 881 607 685 b 368 72 607 347 576 72 b 179 267 263 72 179 150 b 469 539 179 426 332 532 b 303 721 479 643 400 721 b 40 408 128 721 42 597 b 521 -28 39 176 201 -28 z "},"6":{"ha":1188,"x_min":0,"x_max":0,"o":"m 42 694 b 601 -28 42 281 254 -28 b 1146 528 906 -28 1146 222 b 689 1072 1146 919 874 1072 b 344 840 529 1072 388 976 b 303 1106 318 926 303 1017 b 479 1342 303 1221 386 1342 b 836 1122 554 1342 589 1122 b 1046 1314 924 1122 1046 1188 b 1010 1389 1046 1344 1036 1371 l 483 1389 b 42 694 267 1389 42 1079 z m 372 760 l 375 753 b 413 811 361 792 379 811 b 938 231 583 811 938 396 b 864 168 938 193 901 168 b 372 760 760 168 499 432 z "},"7":{"ha":1096,"x_min":0,"x_max":0,"o":"m 333 1044 b 975 1332 628 1044 690 1332 b 238 361 626 1050 238 775 b 346 0 238 196 294 65 l 835 0 b 724 474 761 135 724 285 b 1096 1389 724 794 878 1158 l 56 1389 b 333 1044 -6 1218 136 1044 z "},"8":{"ha":1149,"x_min":0,"x_max":0,"o":"m 42 400 b 585 -28 42 104 276 -28 b 1107 400 893 -28 1107 104 b 747 814 1107 632 947 785 b 1047 1093 919 814 1047 953 b 575 1417 1047 1279 869 1417 b 103 1093 281 1417 103 1279 b 403 814 103 953 231 814 b 42 400 201 785 42 632 z m 531 163 l 531 679 b 579 785 531 757 551 785 b 628 679 607 785 628 757 l 628 163 b 579 57 628 85 607 57 b 531 163 551 57 531 85 z m 575 1340 b 628 1097 607 1340 628 1292 b 575 854 628 903 607 854 b 522 1097 543 854 522 903 b 575 1340 522 1292 543 1340 z "},"9":{"ha":1174,"x_min":0,"x_max":0,"o":"m 42 878 b 469 339 42 533 253 339 b 664 433 556 339 608 369 b 408 218 664 304 546 218 b 142 385 292 218 189 279 b 88 267 110 360 88 317 b 532 -28 88 86 240 -28 b 1132 738 964 -28 1132 379 b 588 1417 1132 1185 897 1417 b 42 878 224 1417 42 1138 z m 521 693 l 521 1113 b 592 1331 521 1282 546 1331 b 663 1113 638 1331 663 1282 l 663 693 b 592 475 663 524 638 475 b 521 693 546 475 521 524 z "},"―":{"ha":347,"x_min":0,"x_max":0,"o":""},"‖":{"ha":347,"x_min":0,"x_max":0,"o":""},"‗":{"ha":347,"x_min":0,"x_max":0,"o":""},"‛":{"ha":347,"x_min":0,"x_max":0,"o":""},"‟":{"ha":347,"x_min":0,"x_max":0,"o":""},"‣":{"ha":347,"x_min":0,"x_max":0,"o":""},"․":{"ha":347,"x_min":0,"x_max":0,"o":""},"‥":{"ha":347,"x_min":0,"x_max":0,"o":""},"≡":{"ha":347,"x_min":0,"x_max":0,"o":""},"≢":{"ha":347,"x_min":0,"x_max":0,"o":""},"≣":{"ha":347,"x_min":0,"x_max":0,"o":""},"\u0000":{"ha":0,"x_min":0,"x_max":0,"o":""},"\r":{"ha":347,"x_min":0,"x_max":0,"o":""}," ":{"ha":417,"x_min":0,"x_max":0,"o":""},"!":{"ha":569,"x_min":0,"x_max":0,"o":"m 250 557 b 285 522 261 535 274 522 b 319 557 297 522 308 535 b 528 1132 407 736 528 947 b 288 1417 528 1304 407 1417 b 42 1132 163 1417 42 1304 b 250 557 42 947 161 739 z m 286 -28 b 500 188 414 -28 500 58 b 286 403 500 317 414 403 b 71 188 157 403 71 317 b 286 -28 71 58 157 -28 z "},"\"":{"ha":954,"x_min":0,"x_max":0,"o":"m 496 1214 b 700 1010 496 1092 578 1010 b 585 843 717 947 682 846 b 658 826 606 828 635 826 b 913 1143 818 826 913 989 b 700 1417 913 1281 850 1417 b 496 1214 578 1417 496 1335 z m 42 1214 b 246 1010 42 1092 124 1010 b 131 843 263 947 228 846 b 204 826 151 828 181 826 b 458 1143 364 826 458 989 b 246 1417 458 1281 396 1417 b 42 1214 124 1417 42 1335 z "},"#":{"ha":579,"x_min":0,"x_max":0,"o":"m 42 503 l 174 503 l 174 294 l 42 294 l 42 256 l 174 256 l 174 -1 l 213 -1 l 213 256 l 372 256 l 372 -1 l 411 -1 l 411 256 l 538 256 l 538 294 l 411 294 l 411 503 l 538 503 l 538 542 l 411 542 l 411 769 l 372 769 l 372 542 l 213 542 l 213 769 l 174 769 l 174 542 l 42 542 z m 372 503 l 372 294 l 213 294 l 213 503 z "},"$":{"ha":1242,"x_min":0,"x_max":0,"o":"m 42 451 b 632 -28 42 128 343 -31 l 632 -117 l 700 -117 l 700 -25 b 1200 457 1036 0 1200 203 b 700 1014 1200 776 949 918 l 699 1122 b 921 1069 771 1092 844 1069 b 1160 1293 1014 1069 1160 1153 b 1133 1389 1160 1329 1150 1358 l 700 1389 l 700 1506 l 632 1506 l 632 1389 l 229 1389 b 60 1136 142 1389 60 1249 b 261 754 60 975 143 853 b 42 451 133 706 42 581 z m 1021 206 b 886 97 1021 147 967 97 b 700 151 822 97 760 118 l 699 492 b 1021 206 876 400 1021 317 z m 631 526 l 631 197 b 300 724 446 339 304 594 b 631 526 400 647 519 585 z m 211 1288 b 243 1329 211 1301 225 1329 b 632 1156 357 1329 488 1232 l 632 1039 b 211 1288 411 1118 211 1169 z "},"%":{"ha":1365,"x_min":0,"x_max":0,"o":"m 42 1028 b 350 639 42 794 171 639 b 658 1028 529 639 658 794 b 350 1417 658 1261 529 1417 b 42 1028 171 1417 42 1261 z m 707 361 b 1015 -28 707 128 836 -28 b 1324 361 1194 -28 1324 128 b 1015 750 1324 594 1194 750 b 707 361 836 750 707 594 z m 422 -117 l 996 1506 l 928 1506 l 354 -117 z m 303 1028 l 303 1217 b 350 1392 303 1378 324 1392 b 396 1217 375 1392 396 1378 l 396 839 b 350 664 396 678 375 664 b 303 839 324 664 303 678 z m 968 550 b 1014 725 968 711 989 725 b 1061 550 1040 725 1061 711 l 1061 361 l 1061 172 b 1014 -3 1061 11 1040 -3 b 968 172 989 -3 968 11 l 968 361 z "},"&":{"ha":1306,"x_min":0,"x_max":0,"o":"m 615 -26 b 901 11 725 -26 817 -15 l 901 8 b 857 -117 901 -50 890 -87 b 940 -136 881 -131 910 -136 b 1264 183 1108 -136 1264 7 b 1218 424 1264 276 1247 356 b 1228 507 1226 454 1228 482 b 790 1018 1228 757 1011 968 l 675 953 b 1197 468 894 924 1185 740 b 392 1179 993 849 392 861 b 626 1363 392 1283 492 1363 b 1082 947 864 1363 1039 1085 l 1107 947 l 1107 1283 b 658 1417 983 1350 844 1417 b 161 1046 418 1417 161 1301 b 257 821 161 969 199 894 b 42 457 126 765 42 617 b 615 -26 42 174 310 -26 z m 288 785 b 900 44 490 554 869 328 b 874 47 890 44 882 46 b 288 785 592 94 247 642 z "},"'":{"ha":500,"x_min":0,"x_max":0,"o":"m 246 1010 b 131 843 263 947 228 846 b 204 826 151 828 181 826 b 458 1143 364 826 458 989 b 246 1417 458 1281 396 1417 b 42 1214 124 1417 42 1335 b 246 1010 42 1092 124 1010 z "},"(":{"ha":542,"x_min":0,"x_max":0,"o":"m 474 -137 l 500 -121 b 242 696 296 25 242 418 b 500 1513 242 974 296 1367 l 474 1529 b 42 696 188 1390 42 1140 b 474 -137 42 251 188 1 z "},")":{"ha":542,"x_min":0,"x_max":0,"o":"m 68 -137 b 500 696 354 1 500 251 b 68 1529 500 1140 354 1390 l 42 1513 b 300 696 246 1367 300 974 b 42 -121 300 418 246 25 z "},"*":{"ha":561,"x_min":0,"x_max":0,"o":"m 96 1138 b 265 1172 144 1138 203 1168 b 121 1075 218 1129 156 1110 b 111 1008 103 1057 89 1031 b 136 997 119 1000 128 997 b 178 1018 151 997 167 1007 b 275 1163 213 1053 232 1115 b 240 993 271 1100 240 1042 b 281 939 240 967 250 939 b 321 993 311 939 321 967 b 286 1163 321 1042 290 1100 b 383 1018 329 1115 349 1053 b 425 997 394 1007 410 997 b 450 1008 433 997 442 1000 b 440 1075 472 1031 458 1057 b 296 1172 406 1110 343 1129 b 465 1138 358 1168 417 1138 b 519 1178 492 1138 519 1147 b 465 1218 519 1208 492 1218 b 296 1183 417 1218 358 1188 b 440 1281 343 1226 406 1246 b 450 1347 458 1299 472 1325 b 425 1358 442 1356 433 1358 b 383 1338 410 1358 394 1349 b 286 1193 349 1303 329 1240 b 321 1363 290 1256 321 1314 b 281 1417 321 1389 311 1417 b 240 1363 250 1417 240 1389 b 275 1193 240 1314 271 1256 b 178 1338 232 1240 213 1303 b 136 1358 167 1349 151 1358 b 111 1347 128 1358 119 1356 b 121 1281 89 1325 103 1299 b 265 1183 156 1246 218 1226 b 96 1218 203 1188 144 1218 b 42 1178 69 1218 42 1208 b 96 1138 42 1147 69 1138 z "},"+":{"ha":579,"x_min":0,"x_max":0,"o":"m 269 622 l 269 393 l 308 393 l 308 622 l 538 622 l 538 661 l 308 661 l 308 889 l 269 889 l 269 661 l 42 661 l 42 622 z "},",":{"ha":500,"x_min":0,"x_max":0,"o":"m 246 -28 b 131 -194 263 -90 228 -192 b 204 -211 151 -210 181 -211 b 458 106 364 -211 458 -49 b 246 379 458 243 396 379 b 42 176 124 379 42 297 b 246 -28 42 54 124 -28 z "},"-":{"ha":569,"x_min":0,"x_max":0,"o":"m 42 661 l 42 383 l 528 383 l 528 661 z "},".":{"ha":490,"x_min":0,"x_max":0,"o":"m 42 176 b 246 -28 42 54 124 -28 b 449 176 367 -28 449 54 b 246 379 449 297 367 379 b 42 176 124 379 42 297 z "},"/":{"ha":725,"x_min":0,"x_max":0,"o":"m 42 -117 l 110 -117 l 683 1506 l 615 1506 z "},":":{"ha":490,"x_min":0,"x_max":0,"o":"m 42 649 b 246 444 42 526 124 444 b 449 649 367 444 449 526 b 246 851 449 769 367 851 b 42 649 124 851 42 769 z m 42 176 b 246 -28 42 54 124 -28 b 449 176 367 -28 449 54 b 246 379 449 297 367 379 b 42 176 124 379 42 297 z "},";":{"ha":500,"x_min":0,"x_max":0,"o":"m 42 176 b 246 -28 42 54 124 -28 b 131 -194 263 -90 228 -192 b 204 -211 151 -210 181 -211 b 458 106 364 -211 458 -49 b 246 379 458 243 396 379 b 42 176 124 379 42 297 z m 42 649 b 246 444 42 526 124 444 b 449 649 367 444 449 526 b 246 851 449 769 367 851 b 42 649 124 851 42 769 z "},"<":{"ha":579,"x_min":0,"x_max":0,"o":"m 540 438 l 540 482 l 107 638 l 540 794 l 540 839 l 44 660 l 44 615 z "},"=":{"ha":579,"x_min":0,"x_max":0,"o":"m 42 661 l 42 622 l 538 622 l 538 661 z m 538 489 l 538 528 l 42 528 l 42 489 z "},">":{"ha":579,"x_min":0,"x_max":0,"o":"m 538 617 l 538 661 l 42 840 l 42 796 l 476 639 l 42 483 l 42 439 z "},"?":{"ha":1121,"x_min":0,"x_max":0,"o":"m 56 822 b 639 1363 94 1050 333 1363 b 814 1233 761 1363 814 1300 b 206 669 814 1003 206 951 b 449 449 206 539 296 449 b 535 465 483 449 511 454 b 514 510 521 481 514 496 b 1079 1053 513 647 1079 749 b 568 1417 1079 1317 838 1417 b 42 1310 382 1417 185 1367 l 42 822 z m 407 403 b 192 188 278 403 192 317 b 407 -28 192 58 278 -28 b 621 188 535 -28 621 58 b 407 403 621 317 535 403 z "},"@":{"ha":1528,"x_min":0,"x_max":0,"o":"m 42 694 b 764 -28 42 296 365 -28 b 1486 694 1163 -28 1486 296 b 764 1417 1486 1093 1163 1417 b 42 694 365 1417 42 1093 z m 118 699 b 764 1363 118 1065 407 1363 b 1408 743 1107 1363 1408 1088 b 1088 376 1408 611 1258 376 b 1006 461 1044 376 1006 399 b 1199 883 1006 592 1132 763 l 890 883 b 661 489 801 729 707 489 b 619 539 629 489 619 513 b 1021 996 619 707 844 996 b 1143 963 1082 996 1106 988 b 911 1186 1168 1065 1056 1186 b 256 557 588 1186 256 843 b 508 247 256 400 353 247 b 789 626 697 247 722 454 b 990 242 733 417 800 242 b 1394 556 1188 242 1299 383 b 764 36 1371 332 1074 36 b 118 699 407 36 118 333 z "},"A":{"ha":1185,"x_min":0,"x_max":0,"o":"m 42 918 l 42 0 l 521 0 b 542 114 536 36 542 75 b 294 694 542 288 399 494 l 644 694 l 644 0 l 1144 0 l 1144 1389 l 490 1389 b 42 918 138 1389 42 1115 z m 186 1035 b 447 1331 186 1128 224 1331 l 644 1331 l 644 743 l 271 743 b 186 1035 221 844 186 943 z "},"B":{"ha":1254,"x_min":0,"x_max":0,"o":"m 42 1389 l 42 0 l 733 0 b 1213 317 914 0 1206 40 b 601 779 1222 686 761 694 b 769 760 675 768 704 760 b 1156 1064 956 760 1156 874 b 813 1389 1156 1263 1010 1389 z m 104 1329 l 301 1329 b 751 972 551 1329 751 1167 b 603 821 751 889 686 821 b 104 1329 403 821 129 1183 z m 760 285 b 508 47 760 117 615 47 l 508 224 b 149 1101 508 565 149 994 b 760 285 344 813 760 588 z "},"C":{"ha":1222,"x_min":0,"x_max":0,"o":"m 675 -28 b 1201 411 996 -28 1251 165 b 971 311 1182 343 1075 310 b 368 1088 693 315 368 594 b 521 1331 368 1236 426 1331 b 921 538 783 1331 906 721 l 935 538 l 1190 1268 b 675 1417 1190 1268 1029 1417 b 21 694 282 1417 21 1110 b 675 -28 21 279 282 -28 z "},"D":{"ha":1231,"x_min":0,"x_max":0,"o":"m 42 1389 l 42 0 l 660 0 b 1210 694 881 0 1210 219 b 660 1389 1210 1169 881 1389 z m 508 49 l 508 1340 l 569 1340 b 732 694 732 1340 732 1026 b 569 49 732 369 724 49 z "},"E":{"ha":1126,"x_min":0,"x_max":0,"o":"m 42 0 l 1085 0 l 1085 694 l 1071 694 b 542 54 1021 315 813 92 l 542 746 b 731 381 617 722 711 535 l 744 381 l 744 1138 l 731 1138 b 542 772 711 983 617 796 l 542 1336 b 1071 813 807 1311 974 1186 l 1085 813 l 1085 1389 l 42 1389 z "},"F":{"ha":1126,"x_min":0,"x_max":0,"o":"m 542 0 l 542 746 b 731 381 617 722 711 535 l 744 381 l 744 1138 l 731 1138 b 542 772 711 983 617 796 l 542 1336 b 1078 813 807 1310 981 1186 l 1092 813 l 1092 1389 l 42 1389 l 42 0 z "},"G":{"ha":1235,"x_min":0,"x_max":0,"o":"m 21 694 b 675 -28 21 279 282 -28 b 1193 256 1068 -28 1193 256 l 1193 929 l 456 929 l 456 915 b 1151 401 572 864 1151 671 b 954 274 1151 310 1047 274 b 314 1088 683 274 314 594 b 568 1358 314 1231 400 1358 b 1088 972 783 1358 989 1131 l 1190 1268 b 675 1417 1190 1268 1029 1417 b 21 694 282 1417 21 1110 z "},"H":{"ha":1274,"x_min":0,"x_max":0,"o":"m 42 0 l 542 0 l 542 694 l 732 694 l 732 0 l 1232 0 l 1232 1389 l 732 1389 l 732 743 l 542 743 l 542 1389 l 42 1389 z "},"I":{"ha":583,"x_min":0,"x_max":0,"o":"m 42 0 l 542 0 l 542 1389 l 42 1389 z "},"J":{"ha":747,"x_min":0,"x_max":0,"o":"m 328 -28 b 706 463 567 -28 706 131 l 706 1389 l 10 1389 b 532 161 175 1082 536 346 b 454 68 531 103 508 68 b 222 806 282 68 222 454 l 208 806 l 0 118 b 328 -28 71 38 174 -28 z "},"K":{"ha":1288,"x_min":0,"x_max":0,"o":"m 507 0 l 507 721 b 754 210 581 626 754 401 b 708 0 754 114 735 49 l 1246 0 b 1260 124 1258 47 1260 82 b 528 825 1260 728 528 614 b 736 1025 528 938 625 1025 b 1188 639 946 1025 1115 813 l 1201 639 l 1201 1354 b 1022 1417 1167 1389 1096 1417 b 507 946 763 1417 578 1167 l 507 1389 l 42 1389 l 42 0 z "},"L":{"ha":1126,"x_min":0,"x_max":0,"o":"m 42 1389 l 42 0 l 1085 0 l 1085 694 l 1071 694 b 542 54 1021 315 813 92 l 542 1389 z "},"M":{"ha":1497,"x_min":0,"x_max":0,"o":"m 42 1389 l 42 0 l 251 0 b 285 81 268 11 285 39 b 92 1168 285 299 92 636 l 92 1244 l 528 -28 l 540 -28 l 956 1189 l 956 0 l 1453 0 l 1456 1389 l 956 1389 l 744 781 l 542 1389 z "},"N":{"ha":1192,"x_min":0,"x_max":0,"o":"m 42 1389 l 42 0 l 317 0 b 350 136 333 11 350 51 b 92 1168 350 424 92 725 l 92 1271 l 621 0 l 1150 0 l 1150 1389 l 875 1389 b 842 1253 858 1378 842 1338 b 1100 221 842 965 1100 664 l 1100 119 l 567 1389 z "},"O":{"ha":1350,"x_min":0,"x_max":0,"o":"m 21 694 b 675 -28 21 261 296 -29 b 1329 694 1054 -26 1329 261 b 675 1417 1329 1128 1054 1415 b 21 694 296 1418 21 1128 z m 518 1342 b 836 735 618 1367 746 1125 b 835 43 926 347 935 69 b 501 650 736 17 593 260 b 518 1342 410 1040 417 1315 z "},"P":{"ha":1233,"x_min":0,"x_max":0,"o":"m 508 0 l 508 469 b 694 433 556 447 615 433 b 1213 911 919 433 1213 547 b 722 1389 1213 1275 958 1389 l 42 1389 l 42 0 z m 508 1340 l 539 1340 b 732 925 706 1340 732 1071 b 539 510 732 781 706 510 l 508 510 z "},"Q":{"ha":1364,"x_min":0,"x_max":0,"o":"m 21 694 b 675 -28 21 261 296 -28 b 867 -1 743 -28 807 -19 b 1158 -124 918 -58 1025 -124 b 1343 -79 1232 -124 1285 -106 l 1297 188 b 996 11 1229 103 1108 11 b 926 19 968 11 946 14 b 1329 694 1169 118 1329 364 b 675 1417 1329 1128 1054 1415 b 21 694 296 1418 21 1128 z m 518 1342 b 836 735 618 1367 746 1125 b 835 43 926 347 935 69 b 501 650 736 17 593 260 b 518 1342 410 1040 417 1315 z "},"R":{"ha":1236,"x_min":0,"x_max":0,"o":"m 508 0 l 508 224 b 178 1086 508 719 178 979 b 683 0 350 853 840 353 l 1201 0 b 1215 124 1214 47 1215 82 b 438 839 1215 579 697 588 b 858 708 517 764 735 708 b 1204 1064 1044 708 1204 836 b 813 1389 1204 1263 1010 1389 l 42 1389 l 42 0 z m 301 1329 b 779 972 551 1329 779 1214 b 649 824 779 889 728 824 b 104 1329 449 824 129 1183 z "},"S":{"ha":1200,"x_min":0,"x_max":0,"o":"m 21 451 b 604 -28 21 135 311 -29 b 1179 457 992 -26 1179 185 b 190 1288 1179 1092 190 1025 b 222 1329 190 1301 204 1329 b 900 1069 408 1329 639 1069 b 1139 1293 993 1069 1139 1153 b 1113 1389 1139 1329 1129 1358 l 208 1389 b 39 1136 121 1389 39 1249 b 240 754 39 975 122 853 b 21 451 113 706 21 581 z m 1000 206 b 865 97 1000 147 946 97 b 279 724 572 97 285 539 b 1000 206 564 507 1000 400 z "},"T":{"ha":1192,"x_min":0,"x_max":0,"o":"m 63 501 b 563 1346 63 1000 363 1294 b 199 0 571 856 347 190 l 1000 0 b 628 1346 851 190 628 856 b 1129 501 829 1294 1129 1000 l 1164 501 l 1164 1389 l 28 1389 l 28 501 z "},"U":{"ha":1161,"x_min":0,"x_max":0,"o":"m 42 1389 l 42 471 b 483 0 42 274 140 0 l 1119 0 l 1119 1389 l 619 1389 l 619 128 b 408 79 565 93 493 79 b 161 354 214 79 161 261 b 517 1275 161 642 514 999 b 496 1389 517 1314 511 1353 z "},"V":{"ha":1285,"x_min":0,"x_max":0,"o":"m 0 1389 l 642 -28 l 1285 1389 l 800 1389 b 751 1307 769 1389 751 1346 b 928 799 751 1161 928 1031 b 856 590 928 711 904 657 l 494 1389 z "},"W":{"ha":1982,"x_min":0,"x_max":0,"o":"m 642 -28 l 990 740 l 1339 -28 l 1982 1389 l 1497 1389 b 1449 1307 1467 1389 1449 1346 b 1625 799 1449 1161 1625 1031 b 1553 590 1625 711 1601 657 l 1192 1389 l 697 1389 b 928 799 775 1218 928 910 b 856 590 928 711 904 657 l 494 1389 l 0 1389 z "},"X":{"ha":1354,"x_min":0,"x_max":0,"o":"m 413 696 l 1 0 l 503 0 b 561 79 538 0 561 40 b 404 546 561 210 404 386 b 436 656 404 589 418 625 l 829 0 l 1354 0 l 940 692 l 1353 1389 l 851 1389 b 793 1310 817 1389 793 1349 b 950 843 793 1179 950 1003 b 917 732 950 800 936 763 l 525 1389 l 0 1389 z "},"Y":{"ha":1368,"x_min":0,"x_max":0,"o":"m 0 1389 l 443 563 l 442 0 l 924 0 l 925 563 l 1368 1389 l 867 1389 b 808 1310 832 1389 808 1349 b 943 808 808 1179 943 1046 b 897 625 943 744 917 664 l 482 1389 z "},"Z":{"ha":1201,"x_min":0,"x_max":0,"o":"m 0 0 l 1160 0 l 1160 694 l 1146 694 b 524 49 1096 333 847 49 l 518 49 l 1154 1389 l 29 1389 l 29 818 l 43 818 b 606 1346 86 1207 407 1346 l 639 1346 z "},"[":{"ha":325,"x_min":0,"x_max":0,"o":"m 440 -117 l 440 -57 l 181 -57 l 181 1446 l 440 1446 l 440 1506 l 42 1506 l 42 -117 z "},"\\":{"ha":725,"x_min":0,"x_max":0,"o":"m 683 -117 l 110 1506 l 42 1506 l 615 -117 z "},"]":{"ha":328,"x_min":0,"x_max":0,"o":"m 286 -117 l 286 1506 l -112 1506 l -112 1446 l 147 1446 l 147 -57 l -112 -57 l -112 -117 z "},"_":{"ha":778,"x_min":0,"x_max":0,"o":"m 42 278 l 42 0 l 736 0 l 736 278 z "},"`":{"ha":550,"x_min":0,"x_max":0,"o":"m 42 799 b 326 694 115 736 218 694 b 508 732 392 694 456 703 l 504 751 b 446 746 485 747 465 746 b 104 901 328 746 207 815 z "},"a":{"ha":1128,"x_min":0,"x_max":0,"o":"m 21 517 b 513 -28 21 124 247 -28 b 699 54 526 -28 640 -28 b 943 -28 761 -6 828 -28 b 1149 57 1032 -28 1107 13 b 1085 263 1104 101 1085 185 l 1083 1035 l 513 1035 b 21 517 260 1035 21 904 z m 507 264 l 507 781 b 576 986 507 925 513 986 b 611 969 590 986 601 979 l 613 167 b 561 21 613 106 614 21 b 507 264 499 21 507 149 z "},"b":{"ha":1158,"x_min":0,"x_max":0,"o":"m 42 1389 l 42 0 l 640 0 b 1138 575 981 0 1138 296 b 749 1063 1138 813 1000 1063 b 542 1000 663 1063 592 1036 l 542 1389 z m 542 954 b 576 967 551 963 563 967 b 646 771 639 967 646 886 l 646 254 b 576 49 646 110 640 49 b 542 65 563 49 551 56 z "},"c":{"ha":1024,"x_min":0,"x_max":0,"o":"m 588 -28 b 960 358 1022 -28 1069 321 b 754 228 951 288 843 228 b 404 760 550 228 404 469 b 513 1014 404 888 442 1014 b 706 332 660 1014 706 542 l 718 328 l 1000 918 b 567 1064 933 1001 753 1064 b 21 518 239 1064 21 846 b 588 -28 21 190 260 -28 z "},"d":{"ha":1153,"x_min":0,"x_max":0,"o":"m 21 518 b 513 0 21 131 260 0 l 1111 0 l 1111 1389 l 611 1389 l 611 1063 l 513 1063 b 21 518 247 1063 21 868 z m 507 771 b 576 1014 507 886 514 1014 b 611 1001 590 1014 601 1010 l 611 65 b 576 49 601 56 590 49 b 507 254 513 49 507 110 z "},"e":{"ha":1050,"x_min":0,"x_max":0,"o":"m 613 -28 b 985 358 1049 -28 1096 321 b 763 196 976 288 850 196 b 514 364 635 196 554 257 b 674 332 564 344 619 332 b 1019 675 846 332 1019 464 b 567 1064 1019 956 796 1064 b 21 518 239 1064 21 846 b 613 -28 21 190 269 -28 z m 497 421 b 482 578 488 468 482 519 b 601 989 482 782 522 989 b 658 847 629 989 658 950 b 497 421 658 676 592 478 z "},"f":{"ha":668,"x_min":0,"x_max":0,"o":"m 42 914 l 42 0 l 508 0 l 508 711 b 418 979 508 829 469 914 l 508 979 l 508 1035 l 369 1035 b 192 1238 285 1121 190 1172 b 260 1303 193 1274 217 1303 b 524 1063 364 1303 471 1197 l 533 1063 l 626 1389 b 467 1417 604 1403 511 1417 b 42 914 129 1417 42 1172 z "},"g":{"ha":1114,"x_min":0,"x_max":0,"o":"m 483 -532 b 1135 -54 792 -532 1135 -319 b 953 119 1135 26 1100 119 l 511 119 b 379 146 463 119 379 108 b 432 176 379 169 401 176 b 556 168 467 176 514 168 b 1092 615 878 168 1092 347 b 556 1063 1092 883 878 1063 b 514 1061 542 1063 528 1063 b 506 1090 508 1071 506 1079 b 554 1129 506 1125 536 1129 b 850 1035 633 1131 713 1035 b 1035 1206 974 1035 1035 1121 b 953 1347 1035 1261 1007 1324 b 828 1263 951 1315 924 1263 l 671 1263 b 463 1113 540 1263 463 1206 b 478 1058 463 1089 468 1078 b 19 615 200 1032 19 861 b 378 189 19 400 157 243 b 153 6 256 149 163 93 b -7 -201 64 -28 -7 -97 b 483 -532 -7 -399 153 -532 z m 501 825 b 556 1015 501 985 526 1015 b 610 825 585 1015 610 985 l 610 406 b 556 215 610 246 585 215 b 501 406 526 215 501 246 z m 133 -100 b 151 -29 133 -65 143 -44 b 467 -249 161 -172 293 -249 l 853 -249 b 978 -272 922 -249 978 -240 b 676 -347 978 -317 861 -347 b 133 -100 344 -347 133 -247 z "},"h":{"ha":1201,"x_min":0,"x_max":0,"o":"m 542 0 l 542 792 b 600 926 542 851 542 926 b 658 792 654 926 658 869 l 658 0 l 1160 0 l 1160 735 b 831 1063 1160 892 1076 1063 b 542 972 701 1063 604 1022 l 542 1389 l 42 1389 l 42 0 z "},"i":{"ha":615,"x_min":0,"x_max":0,"o":"m 57 1035 l 57 0 l 557 0 l 557 1035 z m 42 1276 b 308 1106 42 1104 153 1106 b 574 1276 460 1106 574 1104 b 308 1446 574 1435 467 1446 b 42 1276 149 1446 42 1435 z "},"j":{"ha":581,"x_min":0,"x_max":0,"o":"m 0 -468 b 226 -581 51 -540 128 -581 b 540 -171 457 -581 540 -347 l 540 1035 l 40 1035 l 40 192 b 446 -347 40 -125 446 -182 b 356 -425 446 -393 401 -425 b 14 0 153 -425 29 -182 l 0 0 z m 294 1106 b 560 1276 446 1106 560 1104 b 294 1446 560 1435 453 1446 b 28 1276 135 1446 28 1435 b 294 1106 28 1104 139 1106 z "},"k":{"ha":1183,"x_min":0,"x_max":0,"o":"m 542 0 l 542 451 b 683 0 593 265 683 0 l 1183 0 b 1097 278 1168 36 1117 213 b 885 572 1042 464 1000 561 b 557 631 678 592 557 583 b 746 710 557 685 643 710 b 1136 465 917 710 1125 594 l 1150 465 l 1150 1010 b 963 1063 1117 1039 1053 1063 b 542 764 739 1063 601 907 l 542 1389 l 42 1389 l 42 0 z "},"l":{"ha":561,"x_min":0,"x_max":0,"o":"m 42 1389 l 42 351 b 376 -28 42 97 158 -28 b 582 57 465 -28 540 13 b 518 263 538 101 518 185 l 518 1389 z "},"m":{"ha":1771,"x_min":0,"x_max":0,"o":"m 42 1035 l 42 0 l 542 0 l 542 844 b 593 926 542 886 551 926 b 635 825 636 926 635 865 l 635 0 l 1136 0 l 1136 772 b 1186 926 1136 815 1126 926 b 1228 825 1229 926 1228 865 l 1228 0 l 1729 0 l 1729 735 b 1400 1063 1729 892 1646 1063 b 1094 938 1242 1063 1144 1001 b 807 1063 1047 1013 958 1063 b 542 979 683 1063 597 1025 l 542 1035 z "},"n":{"ha":1201,"x_min":0,"x_max":0,"o":"m 42 1035 l 42 0 l 542 0 l 542 792 b 600 926 542 851 542 926 b 658 792 654 926 658 869 l 658 0 l 1160 0 l 1160 735 b 831 1063 1160 892 1076 1063 b 542 972 703 1063 604 1022 l 542 1035 z "},"o":{"ha":1104,"x_min":0,"x_max":0,"o":"m 21 518 b 551 -28 21 190 233 -28 b 1083 518 871 -28 1083 190 b 551 1063 1083 844 871 1063 b 21 518 233 1063 21 844 z m 553 1018 b 608 888 583 1018 608 989 l 608 518 l 608 149 b 553 18 608 47 583 18 b 497 149 522 18 497 47 l 497 518 l 497 888 b 553 1018 497 989 522 1018 z "},"p":{"ha":1153,"x_min":0,"x_max":0,"o":"m 542 -349 l 542 0 l 640 0 b 1132 517 906 0 1132 167 b 640 1035 1132 904 893 1035 l 42 1035 l 42 -349 z m 542 969 b 576 986 551 979 563 986 b 646 781 640 986 646 925 l 646 292 b 576 49 646 176 639 49 b 542 61 563 49 551 53 z "},"q":{"ha":1161,"x_min":0,"x_max":0,"o":"m 513 -28 l 611 -28 l 611 -165 b 969 -590 611 -433 751 -590 b 1175 -506 1058 -590 1133 -550 b 1111 -300 1131 -461 1111 -378 l 1111 1035 l 513 1035 b 21 517 260 1035 21 904 b 513 -28 21 167 247 -28 z m 507 781 b 576 986 507 925 513 986 b 611 969 590 986 601 979 l 611 33 b 576 21 601 25 590 21 b 507 292 514 21 507 176 z "},"r":{"ha":1038,"x_min":0,"x_max":0,"o":"m 42 0 l 542 0 l 542 615 b 632 694 542 654 575 694 b 842 353 758 694 842 510 l 856 353 l 1038 988 b 878 1063 1021 1025 949 1063 b 542 694 679 1063 542 867 l 542 1035 l 42 1035 z "},"s":{"ha":1014,"x_min":0,"x_max":0,"o":"m 21 722 b 800 117 21 258 800 263 b 735 68 800 89 783 68 b 142 425 563 68 242 269 b 25 260 72 421 25 339 b 492 -28 25 74 238 -28 b 993 349 801 -28 993 101 b 140 896 993 815 140 788 b 218 928 140 928 186 928 b 863 667 374 928 794 774 b 978 814 931 676 978 744 b 508 1063 978 1004 718 1063 b 21 722 219 1063 21 954 z "},"t":{"ha":610,"x_min":0,"x_max":0,"o":"m 58 979 l 58 351 b 393 -28 58 97 175 -28 b 599 57 482 -28 557 13 b 535 263 554 101 535 185 l 535 979 l 610 979 l 610 1035 l 535 1035 l 535 1389 l 521 1389 b -14 1033 446 1268 169 1081 l -14 979 z "},"u":{"ha":1201,"x_min":0,"x_max":0,"o":"m 42 1035 l 42 300 b 371 -28 42 143 125 -28 b 660 63 500 -28 597 13 l 660 0 l 1160 0 l 1160 1035 l 660 1035 l 660 243 b 601 108 660 183 660 108 b 543 243 547 108 543 165 l 543 1035 z "},"v":{"ha":1136,"x_min":0,"x_max":0,"o":"m 0 1035 l 565 -28 l 1136 1035 l 711 1035 b 678 990 696 1035 678 1017 b 843 642 678 863 843 776 b 786 489 843 594 818 529 l 494 1035 z "},"w":{"ha":1781,"x_min":0,"x_max":0,"o":"m 568 -28 l 890 575 l 1213 -28 l 1781 1035 l 1356 1035 b 1322 990 1340 1035 1322 1017 b 1488 642 1322 863 1488 776 b 1431 489 1488 594 1463 529 l 1139 1035 l 644 1035 l 824 700 l 843 642 b 786 489 843 594 818 529 l 494 1035 l 0 1035 z "},"x":{"ha":1183,"x_min":0,"x_max":0,"o":"m 0 1035 l 317 550 l 1 0 l 436 0 b 461 103 458 29 461 63 b 321 446 461 233 321 325 b 335 522 321 468 325 493 l 676 0 l 1183 0 l 865 486 l 1181 1035 l 746 1035 b 721 932 724 1006 721 972 b 861 589 721 801 861 710 b 847 514 861 567 857 542 l 507 1035 z "},"y":{"ha":1136,"x_min":0,"x_max":0,"o":"m 0 1035 l 560 -1 b 390 -307 508 -71 390 -160 b 618 -561 390 -451 508 -542 l 846 -236 b 596 14 767 -225 599 -118 l 1136 1035 l 711 1035 b 678 990 696 1035 678 1017 b 843 642 678 863 843 776 b 786 489 843 594 818 529 l 494 1035 z "},"z":{"ha":976,"x_min":0,"x_max":0,"o":"m 953 0 l 953 463 l 939 463 b 532 49 833 183 621 49 l 956 1035 l 32 1035 l 32 563 l 46 563 b 431 976 61 713 276 914 l 14 0 z "},"{":{"ha":410,"x_min":0,"x_max":0,"o":"m 42 1251 b 210 769 42 1029 210 925 b 149 711 210 732 176 711 l 104 711 l 104 678 l 149 678 b 210 619 176 678 210 657 b 42 138 210 464 42 360 b 310 -126 42 6 153 -125 b 365 -114 332 -126 356 -121 l 356 -86 b 313 -96 346 -92 329 -96 b 213 11 264 -96 213 -51 b 368 526 213 196 368 301 b 257 694 368 618 310 672 b 368 863 310 717 368 771 b 213 1378 368 1088 213 1193 b 313 1485 213 1440 264 1482 b 356 1475 329 1486 346 1481 l 365 1503 b 310 1515 356 1510 332 1515 b 42 1251 153 1514 42 1383 z "},"|":{"ha":151,"x_min":0,"x_max":0,"o":"m 42 -117 l 110 -117 l 110 1506 l 42 1506 z "},"}":{"ha":410,"x_min":0,"x_max":0,"o":"m 42 863 b 153 694 42 771 100 717 b 42 526 100 672 42 618 b 197 11 42 301 197 196 b 97 -96 197 -51 146 -93 b 54 -86 81 -97 64 -92 l 44 -114 b 100 -126 54 -121 78 -126 b 368 138 257 -125 368 6 b 200 619 368 360 200 464 b 261 678 200 657 233 678 l 306 678 l 306 711 l 261 711 b 200 769 233 711 200 732 b 368 1251 200 925 368 1029 b 100 1515 368 1383 257 1514 b 44 1503 78 1515 54 1510 l 54 1475 b 97 1485 64 1481 81 1486 b 197 1378 146 1481 197 1440 b 42 863 197 1193 42 1088 z "},"~":{"ha":1085,"x_min":0,"x_max":0,"o":"m 42 489 b 99 376 42 439 60 404 b 244 517 81 432 151 517 b 772 378 372 517 549 378 b 1043 601 911 378 1043 454 b 976 693 1043 646 1013 683 b 850 575 996 633 922 575 b 314 694 643 575 531 694 b 42 489 174 694 42 606 z "},"¡":{"ha":569,"x_min":0,"x_max":0,"o":"m 42 257 b 288 -28 42 85 163 -28 b 528 257 407 -28 528 85 b 319 832 528 442 407 653 b 285 867 308 854 297 867 b 250 832 274 867 261 856 b 42 257 161 650 42 442 z m 286 986 b 500 1201 414 986 500 1072 b 286 1417 500 1331 414 1417 b 71 1201 157 1417 71 1331 b 286 986 71 1072 157 986 z "},"¢":{"ha":1072,"x_min":0,"x_max":0,"o":"m 522 153 l 522 -117 l 590 -117 l 590 147 l 608 147 b 981 533 1043 147 1090 497 b 775 403 972 463 864 403 b 590 479 706 403 643 431 l 590 1163 b 726 507 693 1058 726 686 l 739 503 l 1021 1093 b 590 1239 956 1176 775 1239 l 590 1506 l 522 1506 l 522 1236 b 42 693 231 1208 42 999 b 522 153 42 394 239 188 z m 425 935 b 522 1189 425 1056 458 1176 l 522 563 b 425 935 461 658 425 790 z "},"£":{"ha":1049,"x_min":0,"x_max":0,"o":"m 42 0 l 1004 0 l 1004 694 l 990 694 b 489 64 935 375 808 64 l 319 64 b 518 499 447 158 518 307 b 500 653 518 553 511 604 l 822 653 l 822 694 l 489 694 b 308 1231 431 894 308 1056 b 418 1351 308 1294 354 1351 b 790 1121 538 1351 597 1121 b 999 1389 926 1121 1039 1231 l 358 1389 b 44 926 219 1389 44 1149 b 183 289 44 672 183 538 b 42 0 183 164 118 67 z "},"¥":{"ha":1451,"x_min":0,"x_max":0,"o":"m 42 1389 l 485 563 l 483 0 l 965 0 l 967 563 l 1410 1389 l 908 1389 b 850 1310 874 1389 850 1349 b 985 808 850 1179 985 1046 b 939 625 985 744 958 664 l 524 1389 z "},"¦":{"ha":151,"x_min":0,"x_max":0,"o":"m 42 -117 l 110 -117 l 110 599 l 42 599 z m 110 790 l 110 1506 l 42 1506 l 42 790 z "},"§":{"ha":976,"x_min":0,"x_max":0,"o":"m 42 1104 b 147 883 42 1000 83 932 b 42 661 81 832 42 758 b 746 131 42 235 746 401 b 631 54 746 88 699 54 b 153 388 392 54 229 218 b 46 236 89 385 46 308 b 474 -28 46 65 240 -28 b 935 318 758 -28 933 90 b 824 513 935 408 890 469 b 935 761 894 571 935 654 b 151 1239 935 1143 151 999 b 250 1306 151 1276 190 1306 b 814 1053 438 1306 738 1174 b 907 1189 875 1079 907 1125 b 489 1417 907 1333 682 1417 b 42 1104 224 1417 42 1317 z m 151 794 b 196 853 151 819 167 840 b 746 574 403 739 746 764 b 742 554 746 567 744 560 b 151 794 510 646 151 632 z "},"¨":{"ha":539,"x_min":0,"x_max":0,"o":"m 139 694 b 236 767 197 694 236 708 b 139 839 236 825 197 839 b 42 767 81 839 42 825 b 139 694 42 708 81 694 z m 400 694 b 497 767 458 694 497 708 b 400 839 497 825 458 839 b 303 767 342 839 303 825 b 400 694 303 708 342 694 z "},"©":{"ha":1528,"x_min":0,"x_max":0,"o":"m 42 694 b 764 -28 42 296 365 -28 b 1486 694 1163 -28 1486 296 b 764 1417 1486 1093 1163 1417 b 42 694 365 1417 42 1093 z m 118 699 b 764 1363 118 1065 407 1363 b 1410 699 1121 1363 1410 1065 b 764 35 1410 332 1121 35 b 118 699 407 35 118 332 z m 788 151 b 1160 538 1222 151 1269 500 b 954 407 1151 467 1043 407 b 604 939 750 406 604 649 b 713 1193 604 1067 642 1193 b 906 511 860 1193 906 721 l 918 507 l 1200 1097 b 767 1243 1133 1181 953 1243 b 221 697 439 1243 221 1025 b 788 151 221 369 460 151 z "},"ª":{"ha":879,"x_min":0,"x_max":0,"o":"m 42 1024 b 389 639 42 746 201 639 b 521 697 399 639 479 639 b 693 639 564 654 611 639 b 838 699 756 639 808 668 b 793 844 806 731 793 789 l 792 1389 l 389 1389 b 42 1024 210 1389 42 1297 z m 385 844 l 385 1210 b 433 1354 385 1311 389 1354 b 458 1343 443 1354 451 1350 l 460 776 b 424 674 460 733 460 674 b 385 844 379 674 385 764 z "},"«":{"ha":824,"x_min":0,"x_max":0,"o":"m 471 15 b 483 49 481 19 483 36 b 124 346 483 147 347 346 b 483 646 347 351 483 547 b 471 679 483 658 481 675 b 42 347 403 532 185 386 b 471 15 185 308 403 163 z m 340 347 b 769 15 483 308 701 163 b 782 49 779 19 782 36 b 422 346 782 147 646 346 b 782 646 646 351 782 547 b 769 679 782 658 779 675 b 340 347 701 532 483 386 z "},"®":{"ha":890,"x_min":0,"x_max":0,"o":"m 446 639 b 849 1043 668 639 849 819 b 446 1446 849 1265 668 1446 b 42 1043 222 1446 42 1265 b 446 639 42 819 222 639 z m 85 1044 b 446 1415 85 1250 246 1415 b 806 1044 644 1415 806 1250 b 446 674 806 840 644 674 b 85 1044 246 674 85 840 z m 256 1307 l 256 811 l 422 811 l 422 890 b 304 1199 422 1068 304 1161 b 485 811 367 1115 542 938 l 671 811 b 675 856 675 828 675 840 b 397 1111 676 1018 490 1021 b 549 1064 425 1083 504 1064 b 672 1192 615 1064 672 1110 b 532 1307 672 1263 603 1307 z m 278 1286 l 349 1286 b 519 1158 439 1286 519 1244 b 474 1106 519 1129 501 1106 b 278 1286 401 1106 288 1233 z "},"¯":{"ha":682,"x_min":0,"x_max":0,"o":"m 42 694 l 640 694 l 640 819 l 42 819 z "},"°":{"ha":693,"x_min":0,"x_max":0,"o":"m 347 807 b 651 1113 514 807 651 944 b 347 1417 651 1279 514 1417 b 42 1113 179 1417 42 1279 b 347 807 42 944 179 807 z m 125 1113 b 347 1333 125 1233 224 1333 b 567 1113 468 1333 567 1233 b 347 890 567 990 468 890 b 125 1113 224 890 125 990 z "},"±":{"ha":579,"x_min":0,"x_max":0,"o":"m 269 317 l 269 88 l 308 88 l 308 317 l 538 317 l 538 356 l 308 356 l 308 583 l 269 583 l 269 356 l 42 356 l 42 317 z m 42 39 l 42 0 l 538 0 l 538 39 z "},"²":{"ha":700,"x_min":0,"x_max":0,"o":"m 110 639 l 644 639 l 644 814 b 583 835 632 828 611 835 b 207 675 481 835 367 675 l 131 675 b 658 1124 200 757 658 831 b 349 1417 658 1318 515 1417 b 50 1188 192 1417 50 1332 b 210 1021 50 1086 135 1021 b 340 1149 278 1021 353 1078 b 265 1218 303 1142 265 1168 b 424 1378 265 1303 335 1378 b 514 1289 476 1378 514 1332 b 42 744 514 983 42 993 b 110 639 42 676 79 639 z "},"³":{"ha":665,"x_min":0,"x_max":0,"o":"m 318 639 b 624 907 474 639 624 738 b 363 1153 624 1064 524 1153 b 603 1389 492 1168 618 1269 l 83 1389 b 231 1211 63 1306 142 1211 b 514 1364 390 1211 436 1364 b 211 1157 514 1261 407 1154 l 211 1140 b 381 926 258 1140 376 1097 b 244 704 382 878 356 704 b 174 785 190 704 174 753 b 290 929 174 849 236 929 b 324 922 304 929 310 925 b 197 1054 346 983 289 1054 b 42 886 104 1054 42 979 b 318 639 42 753 149 639 z "},"´":{"ha":550,"x_min":0,"x_max":0,"o":"m 42 732 b 224 694 94 703 158 694 b 508 799 332 694 435 736 l 446 901 b 104 746 343 815 222 746 b 46 751 85 746 65 747 z "},"·":{"ha":372,"x_min":0,"x_max":0,"o":"m 42 640 b 188 494 42 560 107 494 b 332 640 267 494 332 560 b 188 785 332 719 267 785 b 42 640 107 785 42 719 z "},"¸":{"ha":403,"x_min":0,"x_max":0,"o":"m 42 -350 b 178 -469 42 -411 94 -469 b 361 -287 278 -469 361 -389 b 233 -131 361 -186 308 -131 b 168 -147 207 -131 186 -136 l 235 0 l 194 0 l 119 -176 l 135 -192 b 171 -175 143 -182 151 -175 b 224 -247 201 -175 224 -201 b 140 -340 224 -297 185 -340 b 78 -279 106 -340 83 -318 b 42 -350 61 -289 42 -319 z "},"¹":{"ha":349,"x_min":0,"x_max":0,"o":"m 42 1315 b 122 1247 42 1272 82 1247 b 281 1363 197 1247 246 1313 b 43 1001 225 1213 43 1163 l 43 639 l 307 639 l 307 1417 b 133 1332 263 1372 183 1332 b 63 1358 94 1332 81 1346 b 42 1315 50 1350 42 1335 z "},"º":{"ha":842,"x_min":0,"x_max":0,"o":"m 421 639 b 800 1028 649 639 800 794 b 421 1417 800 1261 649 1417 b 42 1028 193 1417 42 1261 b 421 639 42 794 193 639 z m 382 765 l 382 1292 b 421 1385 381 1364 400 1385 b 461 1292 443 1385 461 1364 l 461 765 b 421 672 461 693 443 672 b 382 765 400 672 381 693 z "},"»":{"ha":824,"x_min":0,"x_max":0,"o":"m 340 646 b 700 346 340 547 476 351 b 340 49 476 346 340 147 b 353 15 340 36 343 19 b 782 347 421 163 639 308 b 353 679 639 386 421 532 b 340 646 343 675 340 658 z m 42 646 b 401 346 42 547 178 351 b 42 49 178 346 42 147 b 54 15 42 36 44 19 b 483 347 122 163 340 308 b 54 679 340 386 122 532 b 42 646 44 675 42 658 z "},"¼":{"ha":1074,"x_min":0,"x_max":0,"o":"m 378 124 l 717 124 l 717 0 l 960 0 l 960 124 l 1032 124 l 1032 150 l 960 150 l 960 375 l 717 375 l 717 150 l 638 150 b 529 246 568 150 529 193 b 899 650 529 382 899 451 b 853 750 899 686 886 714 l 578 750 b 619 640 607 732 619 685 b 378 124 619 475 493 274 z m 122 1247 b 281 1363 197 1247 246 1313 b 43 1001 225 1213 43 1163 l 43 639 l 307 639 l 307 1417 b 133 1332 263 1372 183 1332 b 63 1358 94 1332 81 1346 b 42 1315 50 1350 42 1335 b 122 1247 42 1272 82 1247 z m 132 -117 l 200 -117 l 774 1506 l 706 1506 z "},"½":{"ha":2469,"x_min":0,"x_max":0,"o":"m 1044 0 l 1579 0 l 1579 175 b 1519 196 1567 189 1546 196 b 1143 36 1415 196 1303 36 l 1065 36 b 1594 485 1136 118 1594 192 b 1283 778 1594 679 1450 778 b 986 549 1128 778 986 693 b 1144 382 986 447 1071 382 b 1275 510 1214 382 1288 439 b 1200 579 1238 503 1200 529 b 1360 739 1200 664 1271 739 b 1449 650 1411 739 1449 693 b 978 106 1449 344 978 354 b 1044 0 978 38 1014 0 z m 607 1247 b 765 1363 682 1247 729 1313 b 526 1001 710 1213 526 1163 l 526 639 l 790 639 l 790 1417 b 618 1332 747 1372 668 1332 b 547 1358 579 1332 564 1346 b 526 1315 533 1350 526 1335 b 607 1247 526 1272 565 1247 z m 675 -117 l 1249 1506 l 1181 1506 l 607 -117 z "},"¾":{"ha":1279,"x_min":0,"x_max":0,"o":"m 318 639 b 624 907 474 639 624 738 b 363 1153 624 1064 524 1153 b 603 1389 492 1168 618 1269 l 83 1389 b 231 1211 63 1306 142 1211 b 514 1364 390 1211 436 1364 b 211 1157 514 1261 407 1154 l 211 1140 b 381 926 258 1140 376 1097 b 244 704 382 878 356 704 b 174 785 190 704 174 753 b 290 929 174 849 236 929 b 324 922 304 929 310 925 b 197 1054 346 983 289 1054 b 42 886 104 1054 42 979 b 318 639 42 753 149 639 z m 583 124 l 922 124 l 922 0 l 1165 0 l 1165 124 l 1238 124 l 1238 150 l 1165 150 l 1165 375 l 922 375 l 922 150 l 842 150 b 733 247 774 150 733 194 b 1104 651 733 382 1104 451 b 1058 750 1104 688 1092 715 l 783 750 b 825 640 813 732 825 686 b 583 124 825 476 699 274 z m 421 -117 l 994 1506 l 926 1506 l 353 -117 z "},"¿":{"ha":1121,"x_min":0,"x_max":0,"o":"m 42 336 b 553 -28 42 72 283 -28 b 1079 79 739 -28 936 22 l 1079 567 l 1065 567 b 482 26 1026 339 788 26 b 307 156 360 26 307 89 b 915 719 307 386 915 438 b 672 940 915 850 825 940 b 586 924 638 940 610 935 b 607 879 600 908 607 893 b 42 336 608 742 42 640 z m 500 1201 b 714 986 500 1072 586 986 b 929 1201 843 986 929 1072 b 714 1417 929 1331 843 1417 b 500 1201 586 1417 500 1331 z "},"À":{"ha":1185,"x_min":0,"x_max":0,"o":"m 521 0 b 542 114 536 36 542 75 b 294 694 542 288 399 494 l 644 694 l 644 0 l 1144 0 l 1144 1389 l 490 1389 b 42 918 138 1389 42 1115 l 42 0 z m 186 1035 b 447 1331 186 1128 224 1331 l 644 1331 l 644 743 l 271 743 b 186 1035 221 844 186 943 z m 458 1576 b 743 1472 532 1514 635 1472 b 925 1510 808 1472 872 1481 l 921 1529 b 863 1524 901 1525 882 1524 b 521 1679 744 1524 624 1593 z "},"Á":{"ha":1185,"x_min":0,"x_max":0,"o":"m 42 0 l 521 0 b 542 114 536 36 542 75 b 294 694 542 288 399 494 l 644 694 l 644 0 l 1144 0 l 1144 1389 l 490 1389 b 42 918 138 1389 42 1115 z m 186 1035 b 447 1331 186 1128 224 1331 l 644 1331 l 644 743 l 271 743 b 186 1035 221 844 186 943 z m 458 1510 b 640 1472 511 1481 575 1472 b 925 1576 749 1472 851 1514 l 863 1679 b 521 1524 760 1593 639 1524 b 463 1529 501 1524 482 1525 z "},"Â":{"ha":1185,"x_min":0,"x_max":0,"o":"m 521 0 b 542 114 536 36 542 75 b 294 694 542 288 399 494 l 644 694 l 644 0 l 1144 0 l 1144 1389 l 490 1389 b 42 918 138 1389 42 1115 l 42 0 z m 447 1331 l 644 1331 l 644 743 l 271 743 b 186 1035 221 844 186 943 b 447 1331 186 1128 224 1329 z m 547 1472 l 692 1593 l 836 1472 l 983 1472 l 692 1717 l 400 1472 z "},"Ã":{"ha":1185,"x_min":0,"x_max":0,"o":"m 42 0 l 521 0 b 542 114 536 36 542 75 b 294 694 542 288 399 494 l 644 694 l 644 0 l 1144 0 l 1144 1389 l 490 1389 b 42 918 138 1389 42 1115 z m 447 1331 l 644 1331 l 644 743 l 271 743 b 186 1035 221 844 186 943 b 447 1331 186 1128 224 1329 z m 372 1615 l 372 1482 b 500 1531 399 1507 446 1531 b 882 1472 665 1531 736 1472 b 1010 1521 936 1472 983 1496 l 1010 1654 b 882 1606 983 1629 936 1606 b 500 1664 736 1606 665 1664 b 372 1615 446 1664 399 1640 z "},"Ä":{"ha":1185,"x_min":0,"x_max":0,"o":"m 42 918 l 42 0 l 521 0 b 542 114 536 36 542 75 b 294 694 542 288 399 494 l 644 694 l 644 0 l 1144 0 l 1144 1389 l 490 1389 b 42 918 138 1389 42 1115 z m 186 1035 b 447 1331 186 1128 224 1331 l 644 1331 l 644 743 l 271 743 b 186 1035 221 844 186 943 z m 819 1472 b 917 1544 878 1472 917 1486 b 819 1617 917 1603 878 1617 b 722 1544 761 1617 722 1603 b 819 1472 722 1486 761 1472 z m 560 1472 b 657 1544 618 1472 657 1486 b 560 1617 657 1603 618 1617 b 463 1544 501 1617 463 1603 b 560 1472 463 1486 501 1472 z "},"Å":{"ha":1185,"x_min":0,"x_max":0,"o":"m 42 0 l 521 0 b 542 114 536 36 542 75 b 294 694 542 288 399 494 l 644 694 l 644 0 l 1144 0 l 1144 1389 l 490 1389 b 42 918 138 1389 42 1115 z m 447 1331 l 644 1331 l 644 743 l 271 743 b 186 1035 221 844 186 943 b 447 1331 186 1128 224 1329 z m 692 1417 b 882 1608 796 1417 882 1503 b 692 1799 882 1713 796 1799 b 500 1608 586 1799 500 1713 b 692 1417 500 1503 586 1417 z m 692 1754 b 836 1610 771 1754 836 1689 b 692 1464 836 1529 771 1464 b 546 1610 611 1464 546 1529 b 692 1754 546 1689 611 1754 z "},"Æ":{"ha":1704,"x_min":0,"x_max":0,"o":"m 42 918 l 42 0 l 496 0 b 517 114 511 36 517 75 b 271 694 517 288 375 494 l 619 694 l 619 0 l 1663 0 l 1663 694 l 1649 694 b 1119 54 1649 331 1390 92 l 1119 746 b 1308 381 1194 722 1289 535 l 1322 381 l 1322 1138 l 1308 1138 b 1119 772 1289 983 1194 796 l 1119 1336 b 1649 813 1385 1311 1649 1151 l 1663 813 l 1663 1389 l 483 1389 b 42 918 140 1389 42 1115 z m 408 1310 b 619 1313 493 1310 554 1313 l 619 743 l 246 743 b 161 1035 197 844 161 943 b 408 1310 161 1128 214 1310 z "},"Ç":{"ha":403,"x_min":0,"x_max":0,"o":"m 42 -350 b 178 -469 42 -411 94 -469 b 361 -287 278 -469 361 -389 b 233 -131 361 -186 308 -131 b 168 -147 207 -131 186 -136 l 235 0 l 194 0 l 119 -176 l 135 -192 b 171 -175 143 -182 151 -175 b 224 -247 201 -175 224 -201 b 140 -340 224 -297 185 -340 b 78 -279 106 -340 83 -318 b 42 -350 61 -289 42 -319 z "},"È":{"ha":1126,"x_min":0,"x_max":0,"o":"m 1085 0 l 1085 694 l 1071 694 b 542 54 1021 315 813 92 l 542 746 b 731 381 617 722 711 535 l 744 381 l 744 1138 l 731 1138 b 542 772 711 983 617 796 l 542 1336 b 1071 813 807 1311 974 1186 l 1085 813 l 1085 1389 l 42 1389 l 42 0 z m 324 1576 b 608 1472 397 1514 500 1472 b 790 1510 674 1472 738 1481 l 786 1529 b 728 1524 767 1525 747 1524 b 386 1679 610 1524 489 1593 z "},"É":{"ha":1126,"x_min":0,"x_max":0,"o":"m 42 1389 l 42 0 l 1085 0 l 1085 694 l 1071 694 b 542 54 1021 315 813 92 l 542 746 b 731 381 617 722 711 535 l 744 381 l 744 1138 l 731 1138 b 542 772 711 983 617 796 l 542 1336 b 1071 813 807 1311 974 1186 l 1085 813 l 1085 1389 z m 324 1510 b 506 1472 376 1481 440 1472 b 790 1576 614 1472 717 1514 l 728 1679 b 386 1524 625 1593 504 1524 b 328 1529 367 1524 347 1525 z "},"Ê":{"ha":1126,"x_min":0,"x_max":0,"o":"m 1085 0 l 1085 694 l 1071 694 b 542 54 1021 315 813 92 l 542 746 b 731 381 617 722 711 535 l 744 381 l 744 1138 l 731 1138 b 542 772 711 983 617 796 l 542 1336 b 1071 813 807 1311 974 1186 l 1085 813 l 1085 1389 l 42 1389 l 42 0 z m 265 1472 l 413 1472 l 557 1593 l 701 1472 l 849 1472 l 557 1717 z "},"Ë":{"ha":1126,"x_min":0,"x_max":0,"o":"m 1085 0 l 1085 694 l 1071 694 b 542 54 1021 315 813 92 l 542 746 b 731 381 617 722 711 535 l 744 381 l 744 1138 l 731 1138 b 542 772 711 983 617 796 l 542 1336 b 1071 813 807 1311 974 1186 l 1085 813 l 1085 1389 l 42 1389 l 42 0 z m 686 1472 b 783 1544 744 1472 783 1486 b 686 1617 783 1603 744 1617 b 589 1544 628 1617 589 1603 b 686 1472 589 1486 628 1472 z m 425 1472 b 522 1544 483 1472 522 1486 b 425 1617 522 1603 483 1617 b 328 1544 367 1617 328 1603 b 425 1472 328 1486 367 1472 z "},"Ì":{"ha":583,"x_min":0,"x_max":0,"o":"m 42 1389 l 42 0 l 542 0 l 542 1389 z m 58 1576 b 343 1472 132 1514 235 1472 b 525 1510 408 1472 472 1481 l 521 1529 b 463 1524 501 1525 482 1524 b 121 1679 344 1524 224 1593 z "},"Í":{"ha":583,"x_min":0,"x_max":0,"o":"m 42 0 l 542 0 l 542 1389 l 42 1389 z m 58 1510 b 240 1472 111 1481 175 1472 b 525 1576 349 1472 451 1514 l 463 1679 b 121 1524 360 1593 239 1524 b 63 1529 101 1524 82 1525 z "},"Î":{"ha":583,"x_min":0,"x_max":0,"o":"m 42 0 l 542 0 l 542 1389 l 42 1389 z m 147 1472 l 292 1593 l 436 1472 l 583 1472 l 292 1717 l 0 1472 z "},"Ï":{"ha":583,"x_min":0,"x_max":0,"o":"m 42 1389 l 42 0 l 542 0 l 542 1389 z m 160 1472 b 257 1544 218 1472 257 1486 b 160 1617 257 1603 218 1617 b 63 1544 101 1617 63 1603 b 160 1472 63 1486 101 1472 z m 324 1544 b 421 1472 324 1486 363 1472 b 518 1544 479 1472 518 1486 b 421 1617 518 1603 479 1617 b 324 1544 363 1617 324 1603 z "},"Ð":{"ha":1231,"x_min":0,"x_max":0,"o":"m 42 694 l 43 0 l 661 0 b 1211 694 882 0 1211 219 b 661 1389 1211 1169 882 1389 l 43 1389 l 43 733 l -64 733 l -64 694 z m 622 694 l 622 733 l 510 733 l 510 1340 l 571 1340 b 733 694 733 1340 733 1026 b 571 49 733 369 725 49 l 510 49 l 510 694 z "},"Ñ":{"ha":1192,"x_min":0,"x_max":0,"o":"m 42 1389 l 42 0 l 317 0 b 350 136 333 11 350 51 b 92 1168 350 424 92 725 l 92 1271 l 621 0 l 1150 0 l 1150 1389 l 875 1389 b 842 1253 858 1378 842 1338 b 1100 221 842 965 1100 664 l 1100 119 l 567 1389 z m 406 1531 b 788 1472 571 1531 642 1472 b 915 1521 842 1472 889 1496 l 915 1654 b 788 1606 889 1629 842 1606 b 406 1664 642 1606 571 1664 b 278 1615 351 1664 304 1640 l 278 1482 b 406 1531 304 1507 351 1531 z "},"Ò":{"ha":1350,"x_min":0,"x_max":0,"o":"m 21 694 b 675 -28 21 261 296 -29 b 1329 694 1054 -26 1329 261 b 675 1417 1329 1128 1054 1415 b 21 694 296 1418 21 1128 z m 518 1342 b 836 735 618 1367 746 1125 b 835 43 926 347 935 69 b 501 650 736 17 593 260 b 518 1342 410 1040 417 1315 z m 442 1576 b 726 1472 515 1514 618 1472 b 908 1510 792 1472 856 1481 l 904 1529 b 846 1524 885 1525 865 1524 b 504 1679 728 1524 607 1593 z "},"Ó":{"ha":1350,"x_min":0,"x_max":0,"o":"m 21 694 b 675 -28 21 261 296 -29 b 1329 694 1054 -26 1329 261 b 675 1417 1329 1128 1054 1415 b 21 694 296 1418 21 1128 z m 518 1342 b 836 735 618 1367 746 1125 b 835 43 926 347 935 69 b 501 650 736 17 593 260 b 518 1342 410 1040 417 1315 z m 624 1472 b 908 1576 732 1472 835 1514 l 846 1679 b 504 1524 743 1593 622 1524 b 446 1529 485 1524 465 1525 l 442 1510 b 624 1472 494 1481 558 1472 z "},"Ô":{"ha":1350,"x_min":0,"x_max":0,"o":"m 21 694 b 675 -28 21 261 296 -29 b 1329 694 1054 -26 1329 261 b 675 1417 1329 1128 1054 1415 b 21 694 296 1418 21 1128 z m 518 1342 b 836 735 618 1367 746 1125 b 835 43 926 347 935 69 b 501 650 736 17 593 260 b 518 1342 410 1040 417 1315 z m 531 1472 l 675 1593 l 819 1472 l 967 1472 l 675 1717 l 383 1472 z "},"Õ":{"ha":1350,"x_min":0,"x_max":0,"o":"m 21 694 b 675 -28 21 261 296 -29 b 1329 694 1054 -26 1329 261 b 675 1417 1329 1128 1054 1415 b 21 694 296 1418 21 1128 z m 518 1342 b 836 735 618 1367 746 1125 b 835 43 926 347 935 69 b 501 650 736 17 593 260 b 518 1342 410 1040 417 1315 z m 357 1482 b 485 1531 383 1507 431 1531 b 867 1472 650 1531 721 1472 b 994 1521 921 1472 968 1496 l 994 1654 b 867 1606 968 1629 921 1606 b 485 1664 721 1606 650 1664 b 357 1615 431 1664 383 1640 z "},"Ö":{"ha":1350,"x_min":0,"x_max":0,"o":"m 21 694 b 675 -28 21 261 296 -29 b 1329 694 1054 -26 1329 261 b 675 1417 1329 1128 1054 1415 b 21 694 296 1418 21 1128 z m 518 1342 b 836 735 618 1367 746 1125 b 835 43 926 347 935 69 b 501 650 736 17 593 260 b 518 1342 410 1040 417 1315 z m 804 1472 b 901 1544 863 1472 901 1486 b 804 1617 901 1603 863 1617 b 707 1544 746 1617 707 1603 b 804 1472 707 1486 746 1472 z m 543 1472 b 640 1544 601 1472 640 1486 b 543 1617 640 1603 601 1617 b 446 1544 485 1617 446 1603 b 543 1472 446 1486 485 1472 z "},"×":{"ha":463,"x_min":0,"x_max":0,"o":"m 69 453 l 231 615 l 393 453 l 421 481 l 258 643 l 419 804 l 392 831 l 231 669 l 71 831 l 43 804 l 204 643 l 42 481 z "},"Ø":{"ha":1350,"x_min":0,"x_max":0,"o":"m 21 694 b 406 28 21 372 172 131 l 354 -117 l 422 -117 l 465 4 b 675 -28 531 -17 600 -28 b 1329 694 1054 -28 1329 261 b 944 1361 1329 1015 1178 1258 l 996 1506 l 928 1506 l 885 1385 b 675 1417 819 1406 750 1417 b 21 694 296 1417 21 1128 z m 556 454 b 501 650 536 514 518 579 b 518 1342 410 1040 417 1315 b 756 1018 590 1361 678 1238 z m 788 918 b 836 735 806 861 821 800 b 835 43 926 347 935 69 b 589 357 764 25 671 144 z "},"Ù":{"ha":1161,"x_min":0,"x_max":0,"o":"m 42 1389 l 42 471 b 483 0 42 274 140 0 l 1119 0 l 1119 1389 l 619 1389 l 619 128 b 408 79 565 93 493 79 b 161 354 214 79 161 261 b 517 1275 161 642 514 999 b 496 1389 517 1314 511 1353 z m 347 1576 b 632 1472 421 1514 524 1472 b 814 1510 697 1472 761 1481 l 810 1529 b 751 1524 790 1525 771 1524 b 410 1679 633 1524 513 1593 z "},"Ú":{"ha":1161,"x_min":0,"x_max":0,"o":"m 42 1389 l 42 471 b 483 0 42 274 140 0 l 1119 0 l 1119 1389 l 619 1389 l 619 128 b 408 79 565 93 493 79 b 161 354 214 79 161 261 b 517 1275 161 642 514 999 b 496 1389 517 1314 511 1353 z m 347 1510 b 529 1472 400 1481 464 1472 b 814 1576 638 1472 740 1514 l 751 1679 b 410 1524 649 1593 528 1524 b 351 1529 390 1524 371 1525 z "},"Û":{"ha":1161,"x_min":0,"x_max":0,"o":"m 42 471 b 483 0 42 274 140 0 l 1119 0 l 1119 1389 l 619 1389 l 619 128 b 408 79 565 93 493 79 b 161 354 214 79 161 261 b 517 1275 161 642 514 999 b 496 1389 517 1314 511 1353 l 42 1389 z m 289 1472 l 436 1472 l 581 1593 l 725 1472 l 872 1472 l 581 1717 z "},"Ü":{"ha":1161,"x_min":0,"x_max":0,"o":"m 483 0 l 1119 0 l 1119 1389 l 619 1389 l 619 128 b 408 79 565 93 493 79 b 161 354 214 79 161 261 b 517 1275 161 642 514 999 b 496 1389 517 1314 511 1353 l 42 1389 l 42 471 b 483 0 42 274 140 0 z m 613 1544 b 710 1472 613 1486 651 1472 b 807 1544 768 1472 807 1486 b 710 1617 807 1603 768 1617 b 613 1544 651 1617 613 1603 z m 351 1544 b 449 1472 351 1486 390 1472 b 546 1544 507 1472 546 1486 b 449 1617 546 1603 507 1617 b 351 1544 390 1617 351 1603 z "},"Ý":{"ha":1368,"x_min":0,"x_max":0,"o":"m 0 1389 l 443 563 l 442 0 l 924 0 l 925 563 l 1368 1389 l 867 1389 b 808 1310 832 1389 808 1349 b 943 808 808 1179 943 1046 b 897 625 943 744 917 664 l 482 1389 z m 633 1472 b 918 1576 742 1472 844 1514 l 856 1679 b 514 1524 753 1593 632 1524 b 456 1529 494 1524 475 1525 l 451 1510 b 633 1472 504 1481 568 1472 z "},"ß":{"ha":1200,"x_min":0,"x_max":0,"o":"m 42 0 l 511 0 l 511 319 b 103 1333 511 779 103 1136 l 290 1333 b 572 1046 457 1333 572 1194 b 410 814 572 888 474 838 b 678 431 629 747 678 621 b 574 7 678 283 654 132 b 669 -28 596 -21 638 -28 b 1158 603 872 -28 1158 340 b 943 822 1158 738 1078 822 l 539 822 b 993 1251 749 850 993 1038 b 853 1389 993 1389 926 1389 l 42 1389 z "},"à":{"ha":1128,"x_min":0,"x_max":0,"o":"m 21 517 b 513 -28 21 124 247 -28 b 699 54 526 -28 640 -28 b 943 -28 761 -6 828 -28 b 1149 57 1032 -28 1107 13 b 1085 263 1104 101 1085 185 l 1083 1035 l 513 1035 b 21 517 260 1035 21 904 z m 507 264 l 507 781 b 576 986 507 925 513 986 b 611 969 590 986 601 979 l 613 167 b 561 21 613 106 614 21 b 507 264 499 21 507 149 z m 715 1118 b 897 1156 781 1118 844 1126 l 893 1175 b 835 1169 874 1171 854 1169 b 493 1325 717 1169 596 1239 l 431 1222 b 715 1118 504 1160 607 1118 z "},"á":{"ha":1128,"x_min":0,"x_max":0,"o":"m 21 517 b 513 -28 21 124 247 -28 b 699 54 526 -28 640 -28 b 943 -28 761 -6 828 -28 b 1149 57 1032 -28 1107 13 b 1085 263 1104 101 1085 185 l 1083 1035 l 513 1035 b 21 517 260 1035 21 904 z m 507 264 l 507 781 b 576 986 507 925 513 986 b 611 969 590 986 601 979 l 613 167 b 561 21 613 106 614 21 b 507 264 499 21 507 149 z m 613 1118 b 897 1222 721 1118 824 1160 l 835 1325 b 493 1169 732 1239 611 1169 b 435 1175 474 1169 454 1171 l 431 1156 b 613 1118 483 1126 547 1118 z "},"â":{"ha":1128,"x_min":0,"x_max":0,"o":"m 21 517 b 513 -28 21 124 247 -28 b 699 54 526 -28 640 -28 b 943 -28 761 -6 828 -28 b 1149 57 1032 -28 1107 13 b 1085 263 1104 101 1085 185 l 1083 1035 l 513 1035 b 21 517 260 1035 21 904 z m 507 264 l 507 781 b 576 986 507 925 513 986 b 611 969 590 986 601 979 l 613 167 b 561 21 613 106 614 21 b 507 264 499 21 507 149 z m 372 1118 l 519 1118 l 664 1239 l 808 1118 l 956 1118 l 664 1363 z "},"ã":{"ha":1128,"x_min":0,"x_max":0,"o":"m 21 517 b 513 -28 21 124 247 -28 b 699 54 526 -28 640 -28 b 943 -28 761 -6 828 -28 b 1149 57 1032 -28 1107 13 b 1085 263 1104 101 1085 185 l 1083 1035 l 513 1035 b 21 517 260 1035 21 904 z m 507 264 l 507 781 b 576 986 507 925 513 986 b 611 969 590 986 601 979 l 613 167 b 561 21 613 106 614 21 b 507 264 499 21 507 149 z m 346 1128 b 474 1176 372 1153 419 1176 b 856 1118 639 1176 710 1118 b 983 1167 910 1118 957 1142 l 983 1300 b 856 1251 957 1275 910 1251 b 474 1310 710 1251 639 1310 b 346 1261 419 1310 372 1286 z "},"ä":{"ha":1128,"x_min":0,"x_max":0,"o":"m 21 517 b 513 -28 21 124 247 -28 b 699 54 526 -28 640 -28 b 943 -28 761 -6 828 -28 b 1149 57 1032 -28 1107 13 b 1085 263 1104 101 1085 185 l 1083 1035 l 513 1035 b 21 517 260 1035 21 904 z m 507 264 l 507 781 b 576 986 507 925 513 986 b 611 969 590 986 601 979 l 613 167 b 561 21 613 106 614 21 b 507 264 499 21 507 149 z m 793 1118 b 890 1190 851 1118 890 1132 b 793 1263 890 1249 851 1263 b 696 1190 735 1263 696 1249 b 793 1118 696 1132 735 1118 z m 532 1118 b 629 1190 590 1118 629 1132 b 532 1263 629 1249 590 1263 b 435 1190 474 1263 435 1249 b 532 1118 435 1132 474 1118 z "},"å":{"ha":1128,"x_min":0,"x_max":0,"o":"m 21 517 b 513 -28 21 124 247 -28 b 699 54 526 -28 640 -28 b 943 -28 761 -6 828 -28 b 1149 57 1032 -28 1107 13 b 1085 263 1104 101 1085 185 l 1083 1035 l 513 1035 b 21 517 260 1035 21 904 z m 664 1063 b 854 1254 768 1063 854 1149 b 664 1444 854 1358 768 1444 b 472 1254 558 1444 472 1358 b 664 1063 472 1149 558 1063 z m 507 264 l 507 781 b 576 986 507 925 513 986 b 611 969 590 986 601 979 l 613 167 b 561 21 613 106 614 21 b 507 264 499 21 507 149 z m 664 1400 b 808 1256 743 1400 808 1335 b 664 1110 808 1175 743 1110 b 518 1256 583 1110 518 1175 b 664 1400 518 1335 583 1400 z "},"æ":{"ha":1651,"x_min":0,"x_max":0,"o":"m 21 517 b 513 -28 21 124 247 -28 b 907 42 526 -28 785 -28 b 1215 -28 994 -3 1100 -28 b 1588 358 1650 -28 1697 321 b 1365 196 1579 288 1453 196 b 1117 364 1238 196 1157 257 b 1276 332 1167 344 1222 332 b 1622 675 1449 332 1622 464 b 1169 1064 1622 956 1399 1064 b 974 1035 1099 1064 1033 1054 l 513 1035 b 21 517 260 1035 21 904 z m 507 264 l 507 781 b 576 986 507 925 513 986 b 611 969 590 986 601 979 l 613 167 b 561 21 613 106 614 21 b 507 264 499 21 507 149 z m 1204 989 b 1261 847 1232 989 1261 950 b 1100 421 1261 676 1194 478 b 1085 578 1089 468 1085 519 b 1204 989 1085 782 1125 989 z "},"ç":{"ha":1024,"x_min":0,"x_max":0,"o":"m 567 -28 l 504 -176 l 519 -192 b 556 -175 528 -182 536 -175 b 608 -247 586 -175 608 -201 b 525 -340 608 -297 569 -340 b 463 -279 490 -340 468 -318 b 426 -350 446 -289 426 -319 b 563 -469 426 -411 479 -469 b 746 -287 663 -469 746 -389 b 618 -131 746 -186 693 -131 b 553 -147 592 -131 571 -136 l 607 -28 b 960 358 1024 -18 1068 322 b 754 228 951 288 843 228 b 404 760 550 228 404 469 b 513 1014 404 888 442 1014 b 706 332 660 1014 706 542 l 718 328 l 1000 918 b 567 1064 933 1001 753 1064 b 21 518 239 1064 21 846 b 567 -28 21 197 250 -18 z "},"è":{"ha":1050,"x_min":0,"x_max":0,"o":"m 613 -28 b 985 358 1049 -28 1096 321 b 763 196 976 288 850 196 b 514 364 635 196 554 257 b 674 332 564 344 619 332 b 1019 675 846 332 1019 464 b 567 1064 1019 956 796 1064 b 21 518 239 1064 21 846 b 613 -28 21 190 269 -28 z m 497 421 b 482 578 488 468 482 519 b 601 989 482 782 522 989 b 658 847 629 989 658 950 b 497 421 658 676 592 478 z m 303 1221 b 588 1117 376 1158 479 1117 b 769 1154 653 1117 717 1125 l 765 1174 b 707 1168 746 1169 726 1168 b 365 1324 589 1168 468 1238 z "},"é":{"ha":1050,"x_min":0,"x_max":0,"o":"m 21 518 b 613 -28 21 190 269 -28 b 985 358 1049 -28 1096 321 b 763 196 976 288 850 196 b 514 364 635 196 554 257 b 674 332 564 344 619 332 b 1019 675 846 332 1019 464 b 567 1064 1019 956 796 1064 b 21 518 239 1064 21 846 z m 497 421 b 482 578 488 468 482 519 b 601 989 482 782 522 989 b 658 847 629 989 658 950 b 497 421 658 676 592 478 z m 303 1154 b 485 1117 356 1125 419 1117 b 769 1221 593 1117 696 1158 l 707 1324 b 365 1168 604 1238 483 1168 b 307 1174 346 1168 326 1169 z "},"ê":{"ha":1050,"x_min":0,"x_max":0,"o":"m 613 -28 b 985 358 1049 -28 1096 321 b 763 196 976 288 850 196 b 514 364 635 196 554 257 b 674 332 564 344 619 332 b 1019 675 846 332 1019 464 b 567 1064 1019 956 796 1064 b 21 518 239 1064 21 846 b 613 -28 21 190 269 -28 z m 497 421 b 482 578 488 468 482 519 b 601 989 482 782 522 989 b 658 847 629 989 658 950 b 497 421 658 676 592 478 z m 244 1117 l 392 1117 l 536 1238 l 681 1117 l 828 1117 l 536 1361 z "},"ë":{"ha":1050,"x_min":0,"x_max":0,"o":"m 613 -28 b 985 358 1049 -28 1096 321 b 763 196 976 288 850 196 b 514 364 635 196 554 257 b 674 332 564 344 619 332 b 1019 675 846 332 1019 464 b 567 1064 1019 956 796 1064 b 21 518 239 1064 21 846 b 613 -28 21 190 269 -28 z m 497 421 b 482 578 488 468 482 519 b 601 989 482 782 522 989 b 658 847 629 989 658 950 b 497 421 658 676 592 478 z m 665 1117 b 763 1189 724 1117 763 1131 b 665 1261 763 1247 724 1261 b 568 1189 607 1261 568 1247 b 665 1117 568 1131 607 1117 z m 404 1117 b 501 1189 463 1117 501 1131 b 404 1261 501 1247 463 1261 b 307 1189 346 1261 307 1247 b 404 1117 307 1131 346 1117 z "},"ì":{"ha":583,"x_min":0,"x_max":0,"o":"m 542 0 l 542 1035 l 42 1035 l 42 0 z m 58 1222 b 343 1118 132 1160 235 1118 b 525 1156 408 1118 472 1126 l 521 1175 b 463 1169 501 1171 482 1169 b 121 1325 344 1169 224 1239 z "},"í":{"ha":583,"x_min":0,"x_max":0,"o":"m 542 0 l 542 1035 l 42 1035 l 42 0 z m 58 1156 b 240 1118 111 1126 175 1118 b 525 1222 349 1118 451 1160 l 463 1325 b 121 1169 360 1239 239 1169 b 63 1175 101 1169 82 1171 z "},"î":{"ha":583,"x_min":0,"x_max":0,"o":"m 42 1035 l 42 0 l 542 0 l 542 1035 z m 0 1118 l 147 1118 l 292 1239 l 436 1118 l 583 1118 l 292 1363 z "},"ï":{"ha":583,"x_min":0,"x_max":0,"o":"m 42 0 l 542 0 l 542 1035 l 42 1035 z m 160 1118 b 257 1190 218 1118 257 1132 b 160 1263 257 1249 218 1263 b 63 1190 101 1263 63 1249 b 160 1118 63 1132 101 1118 z m 324 1190 b 421 1118 324 1132 363 1118 b 518 1190 479 1118 518 1132 b 421 1263 518 1249 479 1263 b 324 1190 363 1263 324 1249 z "},"ñ":{"ha":1201,"x_min":0,"x_max":0,"o":"m 42 0 l 542 0 l 542 792 b 600 926 542 851 542 926 b 658 792 654 926 658 869 l 658 0 l 1160 0 l 1160 735 b 831 1063 1160 892 1076 1063 b 542 972 703 1063 604 1022 l 542 1035 l 42 1035 z m 411 1175 b 793 1117 576 1175 647 1117 b 921 1165 847 1117 894 1140 l 921 1299 b 793 1250 894 1274 847 1250 b 411 1308 647 1250 576 1308 b 283 1260 357 1308 310 1285 l 283 1126 b 411 1175 310 1151 357 1175 z "},"ò":{"ha":1104,"x_min":0,"x_max":0,"o":"m 551 -28 b 1083 518 871 -28 1083 190 b 551 1063 1083 844 871 1063 b 21 518 233 1063 21 844 b 551 -28 21 190 233 -28 z m 497 149 l 497 518 l 497 888 b 553 1018 497 989 522 1018 b 608 888 583 1018 608 989 l 608 518 l 608 149 b 553 18 608 47 583 18 b 497 149 522 18 497 47 z m 604 1118 b 786 1156 669 1118 733 1126 l 782 1175 b 724 1169 763 1171 743 1169 b 382 1325 606 1169 485 1239 l 319 1222 b 604 1118 393 1160 496 1118 z "},"ó":{"ha":1104,"x_min":0,"x_max":0,"o":"m 551 -28 b 1083 518 871 -28 1083 190 b 551 1063 1083 844 871 1063 b 21 518 233 1063 21 844 b 551 -28 21 190 233 -28 z m 497 149 l 497 518 l 497 888 b 553 1018 497 989 522 1018 b 608 888 583 1018 608 989 l 608 518 l 608 149 b 553 18 608 47 583 18 b 497 149 522 18 497 47 z m 501 1118 b 786 1222 610 1118 713 1160 l 724 1325 b 382 1169 621 1239 500 1169 b 324 1175 363 1169 343 1171 l 319 1156 b 501 1118 372 1126 436 1118 z "},"ô":{"ha":1104,"x_min":0,"x_max":0,"o":"m 551 -28 b 1083 518 871 -28 1083 190 b 551 1063 1083 844 871 1063 b 21 518 233 1063 21 844 b 551 -28 21 190 233 -28 z m 553 1018 b 608 888 583 1018 608 989 l 608 518 l 608 149 b 553 18 608 47 583 18 b 497 149 522 18 497 47 l 497 518 l 497 888 b 553 1018 497 989 522 1018 z m 261 1118 l 408 1118 l 553 1239 l 697 1118 l 844 1118 l 553 1363 z "},"õ":{"ha":1104,"x_min":0,"x_max":0,"o":"m 21 518 b 551 -28 21 190 233 -28 b 1083 518 871 -28 1083 190 b 551 1063 1083 844 871 1063 b 21 518 233 1063 21 844 z m 497 149 l 497 518 l 497 888 b 553 1018 497 989 522 1018 b 608 888 583 1018 608 989 l 608 518 l 608 149 b 553 18 608 47 583 18 b 497 149 522 18 497 47 z m 363 1176 b 744 1118 528 1176 599 1118 b 872 1167 799 1118 846 1142 l 872 1300 b 744 1251 846 1275 799 1251 b 363 1310 599 1251 528 1310 b 235 1261 308 1310 261 1286 l 235 1128 b 363 1176 261 1153 308 1176 z "},"ö":{"ha":1104,"x_min":0,"x_max":0,"o":"m 21 518 b 551 -28 21 190 233 -28 b 1083 518 871 -28 1083 190 b 551 1063 1083 844 871 1063 b 21 518 233 1063 21 844 z m 497 149 l 497 518 l 497 888 b 553 1018 497 989 522 1018 b 608 888 583 1018 608 989 l 608 518 l 608 149 b 553 18 608 47 583 18 b 497 149 522 18 497 47 z m 585 1190 b 682 1118 585 1132 624 1118 b 779 1190 740 1118 779 1132 b 682 1263 779 1249 740 1263 b 585 1190 624 1263 585 1249 z m 421 1118 b 518 1190 479 1118 518 1132 b 421 1263 518 1249 479 1263 b 324 1190 363 1263 324 1249 b 421 1118 324 1132 363 1118 z "},"÷":{"ha":579,"x_min":0,"x_max":0,"o":"m 288 569 b 490 774 408 569 490 651 b 288 976 490 894 408 976 b 83 774 165 976 83 894 b 288 569 83 651 165 569 z m 83 176 b 288 -28 83 54 165 -28 b 490 176 408 -28 490 54 b 288 379 490 297 408 379 b 83 176 165 379 83 297 z m 538 453 l 538 492 l 42 492 l 42 453 z "},"ø":{"ha":1146,"x_min":0,"x_max":0,"o":"m 265 58 l 143 -117 l 232 -117 l 329 22 b 572 -28 400 -10 482 -28 b 1104 518 892 -28 1104 190 b 954 917 1104 683 1050 821 l 1056 1063 l 968 1063 l 899 964 b 572 1063 811 1028 700 1063 b 42 518 254 1063 42 844 b 265 58 42 313 125 151 z m 518 419 l 518 518 l 518 888 b 574 1018 518 989 543 1018 b 629 888 604 1018 629 989 l 629 579 z m 629 451 l 629 149 b 574 18 629 47 604 18 b 518 149 543 18 518 47 l 518 293 z "},"ù":{"ha":1201,"x_min":0,"x_max":0,"o":"m 42 1035 l 42 300 b 371 -28 42 143 125 -28 b 660 63 500 -28 597 13 l 660 0 l 1160 0 l 1160 1035 l 660 1035 l 660 243 b 601 108 660 183 660 108 b 543 243 547 108 543 165 l 543 1035 z m 653 1118 b 835 1156 718 1118 782 1126 l 831 1175 b 772 1169 811 1171 792 1169 b 431 1325 654 1169 533 1239 l 368 1222 b 653 1118 442 1160 544 1118 z "},"ú":{"ha":1201,"x_min":0,"x_max":0,"o":"m 42 300 b 371 -28 42 143 125 -28 b 660 63 500 -28 597 13 l 660 0 l 1160 0 l 1160 1035 l 660 1035 l 660 243 b 601 108 660 183 660 108 b 543 243 547 108 543 165 l 543 1035 l 42 1035 z m 550 1118 b 835 1222 658 1118 761 1160 l 772 1325 b 431 1169 669 1239 549 1169 b 372 1175 411 1169 392 1171 l 368 1156 b 550 1118 421 1126 485 1118 z "},"û":{"ha":1201,"x_min":0,"x_max":0,"o":"m 42 1035 l 42 300 b 371 -28 42 143 125 -28 b 660 63 500 -28 597 13 l 660 0 l 1160 0 l 1160 1035 l 660 1035 l 660 243 b 601 108 660 183 660 108 b 543 243 547 108 543 165 l 543 1035 z m 457 1118 l 601 1239 l 746 1118 l 893 1118 l 601 1363 l 310 1118 z "},"ü":{"ha":1201,"x_min":0,"x_max":0,"o":"m 42 300 b 371 -28 42 143 125 -28 b 660 63 500 -28 597 13 l 660 0 l 1160 0 l 1160 1035 l 660 1035 l 660 243 b 601 108 660 183 660 108 b 543 243 547 108 543 165 l 543 1035 l 42 1035 z m 731 1118 b 828 1190 789 1118 828 1132 b 731 1263 828 1249 789 1263 b 633 1190 672 1263 633 1249 b 731 1118 633 1132 672 1118 z m 469 1118 b 567 1190 528 1118 567 1132 b 469 1263 567 1249 528 1263 b 372 1190 411 1263 372 1249 b 469 1118 372 1132 411 1118 z "},"ý":{"ha":1136,"x_min":0,"x_max":0,"o":"m 0 1035 l 560 -1 b 390 -307 508 -71 390 -160 b 618 -561 390 -451 508 -542 l 846 -236 b 596 14 767 -225 599 -118 l 1136 1035 l 711 1035 b 678 990 696 1035 678 1017 b 843 642 678 863 843 776 b 786 489 843 594 818 529 l 494 1035 z m 517 1117 b 801 1221 625 1117 728 1158 l 739 1324 b 397 1168 636 1238 515 1168 b 339 1174 378 1168 358 1169 l 335 1154 b 517 1117 388 1125 451 1117 z "},"ÿ":{"ha":1136,"x_min":0,"x_max":0,"o":"m 0 1035 l 560 -1 b 390 -307 508 -71 390 -160 b 618 -561 390 -451 508 -542 l 846 -236 b 596 14 767 -225 599 -118 l 1136 1035 l 711 1035 b 678 990 696 1035 678 1017 b 843 642 678 863 843 776 b 786 489 843 594 818 529 l 494 1035 z m 600 1189 b 697 1117 600 1131 639 1117 b 794 1189 756 1117 794 1131 b 697 1261 794 1247 756 1261 b 600 1189 639 1261 600 1247 z m 339 1189 b 436 1117 339 1131 378 1117 b 533 1189 494 1117 533 1131 b 436 1261 533 1247 494 1261 b 339 1189 378 1261 339 1247 z "},"Ā":{"ha":1185,"x_min":0,"x_max":0,"o":"m 521 0 b 542 114 536 36 542 75 b 294 694 542 288 399 494 l 644 694 l 644 0 l 1144 0 l 1144 1389 l 490 1389 b 42 918 138 1389 42 1115 l 42 0 z m 186 1035 b 447 1331 186 1128 224 1331 l 644 1331 l 644 743 l 271 743 b 186 1035 221 844 186 943 z m 392 1597 l 392 1472 l 990 1472 l 990 1597 z "},"ā":{"ha":1128,"x_min":0,"x_max":0,"o":"m 21 517 b 513 -28 21 124 247 -28 b 699 54 526 -28 640 -28 b 943 -28 761 -6 828 -28 b 1149 57 1032 -28 1107 13 b 1085 263 1104 101 1085 185 l 1083 1035 l 513 1035 b 21 517 260 1035 21 904 z m 507 264 l 507 781 b 576 986 507 925 513 986 b 611 969 590 986 601 979 l 613 167 b 561 21 613 106 614 21 b 507 264 499 21 507 149 z m 365 1243 l 365 1118 l 964 1118 l 964 1243 z "},"Ă":{"ha":1185,"x_min":0,"x_max":0,"o":"m 42 0 l 521 0 b 542 114 536 36 542 75 b 294 694 542 288 399 494 l 644 694 l 644 0 l 1144 0 l 1144 1389 l 490 1389 b 42 918 138 1389 42 1115 z m 186 1035 b 447 1331 186 1128 224 1331 l 644 1331 l 644 743 l 271 743 b 186 1035 221 844 186 943 z m 358 1624 b 693 1471 442 1521 567 1469 b 1022 1624 817 1472 940 1522 l 932 1707 b 690 1601 876 1638 783 1601 b 449 1707 597 1601 506 1638 z "},"ă":{"ha":1128,"x_min":0,"x_max":0,"o":"m 21 517 b 513 -28 21 124 247 -28 b 699 54 526 -28 640 -28 b 943 -28 761 -6 828 -28 b 1149 57 1032 -28 1107 13 b 1085 263 1104 101 1085 185 l 1083 1035 l 513 1035 b 21 517 260 1035 21 904 z m 507 264 l 507 781 b 576 986 507 925 513 986 b 611 969 590 986 601 979 l 613 167 b 561 21 613 106 614 21 b 507 264 499 21 507 149 z m 665 1117 b 996 1269 789 1117 914 1168 l 906 1353 b 664 1247 850 1283 757 1247 b 422 1353 571 1247 479 1283 l 332 1269 b 665 1117 415 1167 540 1117 z "},"Ą":{"ha":1185,"x_min":0,"x_max":0,"o":"m 42 0 l 521 0 b 542 114 536 36 542 75 b 294 694 542 288 399 494 l 644 694 l 644 0 l 868 0 b 793 -222 817 -61 793 -146 b 989 -442 793 -339 861 -442 b 1142 -283 1075 -442 1142 -371 b 1089 -185 1142 -236 1121 -199 b 985 -271 1074 -228 1038 -271 b 868 -129 914 -271 868 -206 b 910 0 868 -78 883 -36 l 1144 0 l 1144 1389 l 490 1389 b 42 918 138 1389 42 1115 z m 447 1331 l 644 1331 l 644 743 l 271 743 b 186 1035 221 844 186 943 b 447 1331 186 1128 224 1329 z "},"ą":{"ha":1128,"x_min":0,"x_max":0,"o":"m 21 517 b 513 -28 21 124 247 -28 b 699 54 526 -28 640 -28 b 883 -25 750 6 803 -18 b 806 -250 831 -87 806 -172 b 1001 -469 806 -367 874 -469 b 1154 -311 1088 -469 1154 -399 b 1101 -212 1154 -264 1133 -226 b 997 -299 1086 -256 1050 -299 b 881 -157 926 -299 881 -233 b 924 -28 881 -106 896 -64 b 1149 57 1008 -28 1089 -7 b 1085 263 1104 101 1085 185 l 1083 1035 l 513 1035 b 21 517 260 1035 21 904 z m 507 264 l 507 781 b 576 986 507 925 513 986 b 611 969 590 986 601 979 l 613 167 b 561 21 613 106 614 21 b 507 264 499 21 507 149 z "},"Ć":{"ha":1222,"x_min":0,"x_max":0,"o":"m 675 -28 b 1201 411 996 -28 1251 165 b 971 311 1182 343 1075 310 b 368 1088 693 315 368 594 b 521 1331 368 1236 426 1331 b 921 538 783 1331 906 721 l 935 538 l 1190 1268 b 675 1417 1190 1268 1029 1417 b 21 694 282 1417 21 1110 b 675 -28 21 279 282 -28 z m 442 1510 b 624 1472 494 1481 558 1472 b 908 1576 732 1472 835 1514 l 846 1679 b 504 1524 743 1593 622 1524 b 446 1529 485 1524 465 1525 z "},"ć":{"ha":1024,"x_min":0,"x_max":0,"o":"m 21 518 b 588 -28 21 190 260 -28 b 960 358 1022 -28 1069 321 b 754 228 951 288 843 228 b 404 760 550 228 404 469 b 513 1014 404 888 442 1014 b 706 332 660 1014 706 542 l 718 328 l 1000 918 b 567 1064 933 1001 753 1064 b 21 518 239 1064 21 846 z m 485 1118 b 769 1222 593 1118 696 1160 l 707 1325 b 365 1169 604 1239 483 1169 b 307 1175 346 1169 326 1171 l 303 1156 b 485 1118 356 1126 419 1118 z "},"Ĉ":{"ha":1222,"x_min":0,"x_max":0,"o":"m 675 -28 b 1201 411 996 -28 1251 165 b 971 311 1182 343 1075 310 b 368 1088 693 315 368 594 b 521 1331 368 1236 426 1331 b 921 538 783 1331 906 721 l 935 538 l 1190 1268 b 675 1417 1190 1268 1029 1417 b 21 694 282 1417 21 1110 b 675 -28 21 279 282 -28 z m 531 1472 l 675 1593 l 819 1472 l 967 1472 l 675 1717 l 383 1472 z "},"ĉ":{"ha":1024,"x_min":0,"x_max":0,"o":"m 588 -28 b 960 358 1022 -28 1069 321 b 754 228 951 288 843 228 b 404 760 550 228 404 469 b 513 1014 404 888 442 1014 b 706 332 660 1014 706 542 l 718 328 l 1000 918 b 567 1064 933 1001 753 1064 b 21 518 239 1064 21 846 b 588 -28 21 190 260 -28 z m 392 1118 l 536 1239 l 681 1118 l 828 1118 l 536 1363 l 244 1118 z "},"Ċ":{"ha":1222,"x_min":0,"x_max":0,"o":"m 675 -28 b 1201 411 996 -28 1251 165 b 971 311 1182 343 1075 310 b 368 1088 693 315 368 594 b 521 1331 368 1236 426 1331 b 921 538 783 1331 906 721 l 935 538 l 1190 1268 b 675 1417 1190 1268 1029 1417 b 21 694 282 1417 21 1110 b 675 -28 21 279 282 -28 z m 675 1472 b 819 1618 754 1472 819 1538 b 675 1763 819 1697 754 1763 b 529 1618 594 1763 529 1697 b 675 1472 529 1538 594 1472 z "},"ċ":{"ha":1024,"x_min":0,"x_max":0,"o":"m 588 -28 b 960 358 1022 -28 1069 321 b 754 228 951 288 843 228 b 404 760 550 228 404 469 b 513 1014 404 888 442 1014 b 706 332 660 1014 706 542 l 718 328 l 1000 918 b 567 1064 933 1001 753 1064 b 21 518 239 1064 21 846 b 588 -28 21 190 260 -28 z m 390 1264 b 536 1118 390 1183 456 1118 b 681 1264 615 1118 681 1183 b 536 1408 681 1343 615 1408 b 390 1264 456 1408 390 1343 z "},"Č":{"ha":1222,"x_min":0,"x_max":0,"o":"m 675 -28 b 1201 411 996 -28 1251 165 b 971 311 1182 343 1075 310 b 368 1088 693 315 368 594 b 521 1331 368 1236 426 1331 b 921 538 783 1331 906 721 l 935 538 l 1190 1268 b 675 1417 1190 1268 1029 1417 b 21 694 282 1417 21 1110 b 675 -28 21 279 282 -28 z m 675 1472 l 967 1717 l 819 1717 l 675 1596 l 531 1717 l 383 1717 z "},"č":{"ha":1024,"x_min":0,"x_max":0,"o":"m 21 518 b 588 -28 21 190 260 -28 b 960 358 1022 -28 1069 321 b 754 228 951 288 843 228 b 404 760 550 228 404 469 b 513 1014 404 888 442 1014 b 706 332 660 1014 706 542 l 718 328 l 1000 918 b 567 1064 933 1001 753 1064 b 21 518 239 1064 21 846 z m 244 1363 l 536 1118 l 828 1363 l 681 1363 l 536 1242 l 392 1363 z "},"Ď":{"ha":1231,"x_min":0,"x_max":0,"o":"m 660 0 b 1210 694 881 0 1210 219 b 660 1389 1210 1169 881 1389 l 42 1389 l 42 0 z m 569 1340 b 732 694 732 1340 732 1026 b 569 49 732 369 724 49 l 508 49 l 508 1340 z m 236 1717 l 528 1472 l 819 1717 l 672 1717 l 528 1596 l 383 1717 z "},"ď":{"ha":1653,"x_min":0,"x_max":0,"o":"m 21 518 b 513 0 21 131 260 0 l 1111 0 l 1111 1389 l 611 1389 l 611 1063 l 513 1063 b 21 518 247 1063 21 868 z m 1399 1010 b 1283 843 1415 947 1381 846 b 1357 826 1304 828 1333 826 b 1611 1143 1517 826 1611 989 b 1399 1417 1611 1281 1549 1417 b 1194 1214 1276 1417 1194 1335 b 1399 1010 1194 1092 1276 1010 z m 576 1014 b 611 1001 590 1014 601 1010 l 611 65 b 576 49 601 56 590 49 b 507 254 513 49 507 110 l 507 771 b 576 1014 507 886 514 1014 z "},"Đ":{"ha":1231,"x_min":0,"x_max":0,"o":"m 42 694 l 43 0 l 661 0 b 1211 694 882 0 1211 219 b 661 1389 1211 1169 882 1389 l 43 1389 l 43 733 l -64 733 l -64 694 z m 622 694 l 622 733 l 510 733 l 510 1340 l 571 1340 b 733 694 733 1340 733 1026 b 571 49 733 369 725 49 l 510 49 l 510 694 z "},"đ":{"ha":1153,"x_min":0,"x_max":0,"o":"m 21 518 b 513 0 21 131 260 0 l 1111 0 l 1111 1197 l 1153 1197 l 1153 1236 l 1111 1236 l 1111 1389 l 611 1389 l 611 1236 l 475 1236 l 475 1197 l 611 1197 l 611 1063 l 513 1063 b 21 518 247 1063 21 868 z m 576 1014 b 611 1001 590 1014 601 1010 l 611 65 b 576 49 601 56 590 49 b 507 254 513 49 507 110 l 507 771 b 576 1014 507 886 514 1014 z "},"Ē":{"ha":1126,"x_min":0,"x_max":0,"o":"m 42 0 l 1085 0 l 1085 694 l 1071 694 b 542 54 1021 315 813 92 l 542 746 b 731 381 617 722 711 535 l 744 381 l 744 1138 l 731 1138 b 542 772 711 983 617 796 l 542 1336 b 1071 813 807 1311 974 1186 l 1085 813 l 1085 1389 l 42 1389 z m 258 1472 l 857 1472 l 857 1597 l 258 1597 z "},"ē":{"ha":1050,"x_min":0,"x_max":0,"o":"m 21 518 b 613 -28 21 190 269 -28 b 985 358 1049 -28 1096 321 b 763 196 976 288 850 196 b 514 364 635 196 554 257 b 674 332 564 344 619 332 b 1019 675 846 332 1019 464 b 567 1064 1019 956 796 1064 b 21 518 239 1064 21 846 z m 497 421 b 482 578 488 468 482 519 b 601 989 482 782 522 989 b 658 847 629 989 658 950 b 497 421 658 676 592 478 z m 238 1117 l 836 1117 l 836 1242 l 238 1242 z "},"Ĕ":{"ha":1126,"x_min":0,"x_max":0,"o":"m 42 1389 l 42 0 l 1085 0 l 1085 694 l 1071 694 b 542 54 1021 315 813 92 l 542 746 b 731 381 617 722 711 535 l 744 381 l 744 1138 l 731 1138 b 542 772 711 983 617 796 l 542 1336 b 1071 813 807 1311 974 1186 l 1085 813 l 1085 1389 z m 225 1624 b 558 1471 308 1521 433 1469 b 889 1624 682 1472 807 1522 l 799 1707 b 557 1601 743 1638 650 1601 b 315 1707 464 1601 372 1638 z "},"ĕ":{"ha":1050,"x_min":0,"x_max":0,"o":"m 21 518 b 613 -28 21 190 269 -28 b 985 358 1049 -28 1096 321 b 763 196 976 288 850 196 b 514 364 635 196 554 257 b 674 332 564 344 619 332 b 1019 675 846 332 1019 464 b 567 1064 1019 956 796 1064 b 21 518 239 1064 21 846 z m 497 421 b 482 578 488 468 482 519 b 601 989 482 782 522 989 b 658 847 629 989 658 950 b 497 421 658 676 592 478 z m 204 1268 b 538 1115 288 1165 413 1114 b 868 1268 661 1117 786 1167 l 778 1351 b 536 1246 722 1282 629 1246 b 294 1351 443 1246 351 1282 z "},"Ė":{"ha":1126,"x_min":0,"x_max":0,"o":"m 42 0 l 1085 0 l 1085 694 l 1071 694 b 542 54 1021 315 813 92 l 542 746 b 731 381 617 722 711 535 l 744 381 l 744 1138 l 731 1138 b 542 772 711 983 617 796 l 542 1336 b 1071 813 807 1311 974 1186 l 1085 813 l 1085 1389 l 42 1389 z m 411 1618 b 557 1472 411 1538 476 1472 b 701 1618 636 1472 701 1538 b 557 1763 701 1697 636 1763 b 411 1618 476 1763 411 1697 z "},"ė":{"ha":1050,"x_min":0,"x_max":0,"o":"m 613 -28 b 985 358 1049 -28 1096 321 b 763 196 976 288 850 196 b 514 364 635 196 554 257 b 674 332 564 344 619 332 b 1019 675 846 332 1019 464 b 567 1064 1019 956 796 1064 b 21 518 239 1064 21 846 b 613 -28 21 190 269 -28 z m 497 421 b 482 578 488 468 482 519 b 601 989 482 782 522 989 b 658 847 629 989 658 950 b 497 421 658 676 592 478 z m 390 1263 b 536 1117 390 1182 456 1117 b 681 1263 615 1117 681 1182 b 536 1407 681 1342 615 1407 b 390 1263 456 1407 390 1342 z "},"Ę":{"ha":1126,"x_min":0,"x_max":0,"o":"m 42 1389 l 42 0 l 263 0 b 188 -222 211 -61 188 -146 b 383 -442 188 -339 256 -442 b 536 -283 469 -442 536 -371 b 483 -185 536 -236 515 -199 b 379 -271 468 -228 432 -271 b 263 -129 308 -271 263 -206 b 306 0 263 -78 278 -36 l 1085 0 l 1085 694 l 1071 694 b 542 54 1021 315 813 92 l 542 746 b 731 381 617 722 711 535 l 744 381 l 744 1138 l 731 1138 b 542 772 711 983 617 796 l 542 1336 b 1071 813 807 1311 974 1186 l 1085 813 l 1085 1389 z "},"ę":{"ha":1050,"x_min":0,"x_max":0,"o":"m 583 -28 b 508 -250 532 -89 508 -174 b 704 -469 508 -367 576 -469 b 857 -311 790 -469 857 -399 b 804 -212 857 -264 836 -226 b 700 -299 789 -256 753 -299 b 583 -157 629 -299 583 -233 b 626 -28 583 -106 599 -64 b 985 358 1049 -21 1094 322 b 763 196 976 288 850 196 b 514 364 635 196 554 257 b 674 332 564 344 619 332 b 1019 675 846 332 1019 464 b 567 1064 1019 956 796 1064 b 21 518 239 1064 21 846 b 583 -28 21 200 256 -15 z m 497 421 b 482 578 488 468 482 519 b 601 989 482 782 522 989 b 658 847 629 989 658 950 b 497 421 658 676 592 478 z "},"Ě":{"ha":1126,"x_min":0,"x_max":0,"o":"m 42 1389 l 42 0 l 1085 0 l 1085 694 l 1071 694 b 542 54 1021 315 813 92 l 542 746 b 731 381 617 722 711 535 l 744 381 l 744 1138 l 731 1138 b 542 772 711 983 617 796 l 542 1336 b 1071 813 807 1311 974 1186 l 1085 813 l 1085 1389 z m 265 1717 l 557 1472 l 849 1717 l 701 1717 l 557 1596 l 413 1717 z "},"ě":{"ha":1050,"x_min":0,"x_max":0,"o":"m 613 -28 b 985 358 1049 -28 1096 321 b 763 196 976 288 850 196 b 514 364 635 196 554 257 b 674 332 564 344 619 332 b 1019 675 846 332 1019 464 b 567 1064 1019 956 796 1064 b 21 518 239 1064 21 846 b 613 -28 21 190 269 -28 z m 497 421 b 482 578 488 468 482 519 b 601 989 482 782 522 989 b 658 847 629 989 658 950 b 497 421 658 676 592 478 z m 244 1361 l 536 1117 l 828 1361 l 681 1361 l 536 1240 l 392 1361 z "},"Ĝ":{"ha":1235,"x_min":0,"x_max":0,"o":"m 675 -28 b 1193 256 1068 -28 1193 256 l 1193 929 l 456 929 l 456 915 b 1151 401 572 864 1151 671 b 954 274 1151 310 1047 274 b 314 1088 683 274 314 594 b 568 1358 314 1231 400 1358 b 1088 972 783 1358 989 1131 l 1190 1268 b 675 1417 1190 1268 1029 1417 b 21 694 282 1417 21 1110 b 675 -28 21 279 282 -28 z m 383 1472 l 531 1472 l 675 1593 l 819 1472 l 967 1472 l 675 1717 z "},"ĝ":{"ha":1114,"x_min":0,"x_max":0,"o":"m -7 -201 b 483 -532 -7 -399 153 -532 b 1135 -54 792 -532 1135 -319 b 953 119 1135 26 1100 119 l 511 119 b 379 146 463 119 379 108 b 432 176 379 169 401 176 b 556 168 467 176 514 168 b 1092 615 878 168 1092 347 b 556 1063 1092 883 878 1063 b 514 1061 542 1063 528 1063 b 506 1090 508 1071 506 1079 b 554 1129 506 1125 536 1129 b 850 1035 633 1131 713 1035 b 1035 1206 974 1035 1035 1121 b 953 1347 1035 1261 1007 1324 b 828 1263 951 1315 924 1263 l 671 1263 b 463 1113 540 1263 463 1206 b 478 1058 463 1089 468 1078 b 19 615 200 1032 19 861 b 378 189 19 400 157 243 b 153 6 256 149 163 93 b -7 -201 64 -28 -7 -97 z m 556 1015 b 610 825 585 1015 610 985 l 610 406 b 556 215 610 246 585 215 b 501 406 526 215 501 246 l 501 825 b 556 1015 501 985 526 1015 z m 133 -100 b 151 -29 133 -65 143 -44 b 467 -249 161 -172 293 -249 l 853 -249 b 978 -272 922 -249 978 -240 b 676 -347 978 -317 861 -347 b 133 -100 344 -347 133 -247 z m 272 1356 l 419 1356 l 564 1476 l 708 1356 l 856 1356 l 564 1600 z "},"Ğ":{"ha":1235,"x_min":0,"x_max":0,"o":"m 675 -28 b 1193 256 1068 -28 1193 256 l 1193 929 l 456 929 l 456 915 b 1151 401 572 864 1151 671 b 954 274 1151 310 1047 274 b 314 1088 683 274 314 594 b 568 1358 314 1231 400 1358 b 1088 972 783 1358 989 1131 l 1190 1268 b 675 1417 1190 1268 1029 1417 b 21 694 282 1417 21 1110 b 675 -28 21 279 282 -28 z m 676 1471 b 1007 1624 800 1471 925 1522 l 917 1707 b 675 1601 861 1638 768 1601 b 433 1707 582 1601 490 1638 l 343 1624 b 676 1471 426 1521 551 1471 z "},"ğ":{"ha":1114,"x_min":0,"x_max":0,"o":"m 483 -532 b 1135 -54 792 -532 1135 -319 b 953 119 1135 26 1100 119 l 511 119 b 379 146 463 119 379 108 b 432 176 379 169 401 176 b 556 168 467 176 514 168 b 1092 615 878 168 1092 347 b 556 1063 1092 883 878 1063 b 514 1061 542 1063 528 1063 b 506 1090 508 1071 506 1079 b 554 1129 506 1125 536 1129 b 850 1035 633 1131 713 1035 b 1035 1206 974 1035 1035 1121 b 953 1347 1035 1261 1007 1324 b 828 1263 951 1315 924 1263 l 671 1263 b 463 1113 540 1263 463 1206 b 478 1058 463 1089 468 1078 b 19 615 200 1032 19 861 b 378 189 19 400 157 243 b 153 6 256 149 163 93 b -7 -201 64 -28 -7 -97 b 483 -532 -7 -399 153 -532 z m 501 406 l 501 825 b 556 1015 501 985 526 1015 b 610 825 585 1015 610 985 l 610 406 b 556 215 610 246 585 215 b 501 406 526 215 501 246 z m 151 -29 b 467 -249 161 -172 293 -249 l 853 -249 b 978 -272 922 -249 978 -240 b 676 -347 978 -317 861 -347 b 133 -100 344 -347 133 -247 b 151 -29 133 -65 143 -44 z m 232 1507 b 565 1354 315 1404 440 1353 b 896 1507 689 1356 814 1406 l 806 1590 b 564 1485 750 1521 657 1485 b 322 1590 471 1485 379 1521 z "},"Ġ":{"ha":1235,"x_min":0,"x_max":0,"o":"m 21 694 b 675 -28 21 279 282 -28 b 1193 256 1068 -28 1193 256 l 1193 929 l 456 929 l 456 915 b 1151 401 572 864 1151 671 b 954 274 1151 310 1047 274 b 314 1088 683 274 314 594 b 568 1358 314 1231 400 1358 b 1088 972 783 1358 989 1131 l 1190 1268 b 675 1417 1190 1268 1029 1417 b 21 694 282 1417 21 1110 z m 529 1618 b 675 1472 529 1538 594 1472 b 819 1618 754 1472 819 1538 b 675 1763 819 1697 754 1763 b 529 1618 594 1763 529 1697 z "},"ġ":{"ha":1114,"x_min":0,"x_max":0,"o":"m -7 -201 b 483 -532 -7 -399 153 -532 b 1135 -54 792 -532 1135 -319 b 953 119 1135 26 1100 119 l 511 119 b 379 146 463 119 379 108 b 432 176 379 169 401 176 b 556 168 467 176 514 168 b 1092 615 878 168 1092 347 b 556 1063 1092 883 878 1063 b 514 1061 542 1063 528 1063 b 506 1090 508 1071 506 1079 b 554 1129 506 1125 536 1129 b 850 1035 633 1131 713 1035 b 1035 1206 974 1035 1035 1121 b 953 1347 1035 1261 1007 1324 b 828 1263 951 1315 924 1263 l 671 1263 b 463 1113 540 1263 463 1206 b 478 1058 463 1089 468 1078 b 19 615 200 1032 19 861 b 378 189 19 400 157 243 b 153 6 256 149 163 93 b -7 -201 64 -28 -7 -97 z m 501 406 l 501 825 b 556 1015 501 985 526 1015 b 610 825 585 1015 610 985 l 610 406 b 556 215 610 246 585 215 b 501 406 526 215 501 246 z m 133 -100 b 151 -29 133 -65 143 -44 b 467 -249 161 -172 293 -249 l 853 -249 b 978 -272 922 -249 978 -240 b 676 -347 978 -317 861 -347 b 133 -100 344 -347 133 -247 z m 564 1356 b 708 1501 643 1356 708 1421 b 564 1646 708 1581 643 1646 b 418 1501 483 1646 418 1581 b 564 1356 418 1421 483 1356 z "},"Ģ":{"ha":1235,"x_min":0,"x_max":0,"o":"m 21 694 b 675 -28 21 279 282 -28 b 1193 256 1068 -28 1193 256 l 1193 929 l 456 929 l 456 915 b 1151 401 572 864 1151 671 b 954 274 1151 310 1047 274 b 314 1088 683 274 314 594 b 568 1358 314 1231 400 1358 b 1088 972 783 1358 989 1131 l 1190 1268 b 675 1417 1190 1268 1029 1417 b 21 694 282 1417 21 1110 z m 538 -257 b 678 -397 538 -340 593 -397 b 599 -512 689 -440 665 -510 b 649 -524 613 -522 632 -524 b 824 -306 758 -524 824 -411 b 678 -117 824 -211 781 -117 b 538 -257 593 -117 538 -174 z "},"ģ":{"ha":1114,"x_min":0,"x_max":0,"o":"m 483 -532 b 1135 -54 792 -532 1135 -319 b 953 119 1135 26 1100 119 l 511 119 b 379 146 463 119 379 108 b 432 176 379 169 401 176 b 556 168 467 176 514 168 b 1092 615 878 168 1092 347 b 556 1063 1092 883 878 1063 b 514 1061 542 1063 528 1063 b 506 1090 508 1071 506 1079 b 554 1129 506 1125 536 1129 b 850 1035 633 1131 713 1035 b 1035 1206 974 1035 1035 1121 b 953 1347 1035 1261 1007 1324 b 828 1263 951 1315 924 1263 l 671 1263 b 463 1113 540 1263 463 1206 b 478 1058 463 1089 468 1078 b 19 615 200 1032 19 861 b 378 189 19 400 157 243 b 153 6 256 149 163 93 b -7 -201 64 -28 -7 -97 b 483 -532 -7 -399 153 -532 z m 424 1440 b 564 1300 424 1357 479 1300 b 710 1489 667 1300 710 1394 b 535 1707 710 1594 646 1707 b 485 1694 519 1707 499 1706 b 564 1581 551 1693 575 1624 b 424 1440 479 1581 424 1524 z m 556 1015 b 610 825 585 1015 610 985 l 610 406 b 556 215 610 246 585 215 b 501 406 526 215 501 246 l 501 825 b 556 1015 501 985 526 1015 z m 151 -29 b 467 -249 161 -172 293 -249 l 853 -249 b 978 -272 922 -249 978 -240 b 676 -347 978 -317 861 -347 b 133 -100 344 -347 133 -247 b 151 -29 133 -65 143 -44 z "},"Ĥ":{"ha":1274,"x_min":0,"x_max":0,"o":"m 42 1389 l 42 0 l 542 0 l 542 694 l 732 694 l 732 0 l 1232 0 l 1232 1389 l 732 1389 l 732 743 l 542 743 l 542 1389 z m 493 1472 l 638 1593 l 782 1472 l 929 1472 l 638 1717 l 346 1472 z "},"ĥ":{"ha":1201,"x_min":0,"x_max":0,"o":"m 542 0 l 542 792 b 600 926 542 851 542 926 b 658 792 654 926 658 869 l 658 0 l 1160 0 l 1160 735 b 831 1063 1160 892 1076 1063 b 542 972 701 1063 604 1022 l 542 1389 l 42 1389 l 42 0 z m 142 1472 l 286 1593 l 431 1472 l 578 1472 l 286 1717 l -6 1472 z "},"Ħ":{"ha":1274,"x_min":0,"x_max":0,"o":"m 42 1389 l 42 0 l 542 0 l 542 694 l 732 694 l 732 0 l 1232 0 l 1232 1389 l 732 1389 l 732 743 l 542 743 l 542 1389 z m 938 1472 l 938 1597 l 339 1597 l 339 1472 z "},"ħ":{"ha":1201,"x_min":0,"x_max":0,"o":"m 542 0 l 542 792 b 600 926 542 851 542 926 b 658 792 654 926 658 869 l 658 0 l 1160 0 l 1160 735 b 831 1063 1160 892 1076 1063 b 542 972 701 1063 604 1022 l 542 1389 l 42 1389 l 42 0 z m 586 1472 l 586 1597 l -12 1597 l -12 1472 z "},"Ĩ":{"ha":583,"x_min":0,"x_max":0,"o":"m 42 0 l 542 0 l 542 1389 l 42 1389 z m 101 1531 b 483 1472 267 1531 338 1472 b 611 1521 538 1472 585 1496 l 611 1654 b 483 1606 585 1629 538 1606 b 101 1664 338 1606 267 1664 b -26 1615 47 1664 0 1640 l -26 1482 b 101 1531 0 1507 47 1531 z "},"ĩ":{"ha":583,"x_min":0,"x_max":0,"o":"m 42 1035 l 42 0 l 542 0 l 542 1035 z m 101 1176 b 483 1118 267 1176 338 1118 b 611 1167 538 1118 585 1142 l 611 1300 b 483 1251 585 1275 538 1251 b 101 1310 338 1251 267 1310 b -26 1261 47 1310 0 1286 l -26 1128 b 101 1176 0 1153 47 1176 z "},"Ī":{"ha":583,"x_min":0,"x_max":0,"o":"m 42 0 l 542 0 l 542 1389 l 42 1389 z m -7 1472 l 592 1472 l 592 1597 l -7 1597 z "},"ī":{"ha":583,"x_min":0,"x_max":0,"o":"m 542 0 l 542 1035 l 42 1035 l 42 0 z m -7 1118 l 592 1118 l 592 1243 l -7 1243 z "},"Ĭ":{"ha":583,"x_min":0,"x_max":0,"o":"m 42 1389 l 42 0 l 542 0 l 542 1389 z m 293 1471 b 624 1624 417 1471 542 1522 l 533 1707 b 292 1601 478 1638 385 1601 b 50 1707 199 1601 107 1638 l -40 1624 b 293 1471 43 1521 168 1471 z "},"ĭ":{"ha":583,"x_min":0,"x_max":0,"o":"m 42 0 l 542 0 l 542 1035 l 42 1035 z m 293 1117 b 624 1269 417 1117 542 1168 l 533 1353 b 292 1247 478 1283 385 1247 b 50 1353 199 1247 107 1283 l -40 1269 b 293 1117 43 1167 168 1117 z "},"Į":{"ha":583,"x_min":0,"x_max":0,"o":"m 42 1389 l 42 0 l 274 0 b 199 -222 222 -61 199 -146 b 394 -442 199 -339 267 -442 b 547 -283 481 -442 547 -371 b 494 -185 547 -236 526 -199 b 390 -271 479 -228 443 -271 b 274 -129 319 -271 274 -206 b 317 0 274 -78 289 -36 l 542 0 l 542 1389 z "},"į":{"ha":615,"x_min":0,"x_max":0,"o":"m 57 0 l 281 0 b 206 -222 229 -61 206 -146 b 401 -442 206 -339 274 -442 b 554 -283 488 -442 554 -371 b 501 -185 554 -236 533 -199 b 397 -271 486 -228 450 -271 b 281 -129 326 -271 281 -206 b 324 0 281 -78 296 -36 l 557 0 l 557 1035 l 57 1035 z m 308 1106 b 574 1276 460 1106 574 1104 b 308 1446 574 1435 467 1446 b 42 1276 149 1446 42 1435 b 308 1106 42 1104 153 1106 z "},"İ":{"ha":583,"x_min":0,"x_max":0,"o":"m 42 1389 l 42 0 l 542 0 l 542 1389 z m 146 1618 b 292 1472 146 1538 211 1472 b 436 1618 371 1472 436 1538 b 292 1763 436 1697 371 1763 b 146 1618 211 1763 146 1697 z "},"ı":{"ha":583,"x_min":0,"x_max":0,"o":"m 542 0 l 542 1035 l 42 1035 l 42 0 z "},"Ĵ":{"ha":747,"x_min":0,"x_max":0,"o":"m 328 -28 b 706 463 567 -28 706 131 l 706 1389 l 10 1389 b 532 161 175 1082 536 346 b 454 68 531 103 508 68 b 222 806 282 68 222 454 l 208 806 l 0 118 b 328 -28 71 38 174 -28 z m 61 1472 l 208 1472 l 353 1593 l 497 1472 l 644 1472 l 353 1717 z "},"ĵ":{"ha":581,"x_min":0,"x_max":0,"o":"m 0 0 l 0 -468 b 226 -581 51 -540 128 -581 b 540 -171 457 -581 540 -347 l 540 1035 l 40 1035 l 40 192 b 446 -347 40 -125 446 -182 b 356 -425 446 -393 401 -425 b 14 0 153 -425 29 -182 z m 1 1117 l 149 1117 l 293 1238 l 438 1117 l 585 1117 l 293 1361 z "},"Ķ":{"ha":1288,"x_min":0,"x_max":0,"o":"m 42 0 l 507 0 l 507 721 b 754 210 581 626 754 401 b 708 0 754 114 735 49 l 1246 0 b 1260 124 1258 47 1260 82 b 528 825 1260 728 528 614 b 736 1025 528 938 625 1025 b 1188 639 946 1025 1115 813 l 1201 639 l 1201 1354 b 1022 1417 1167 1389 1096 1417 b 507 946 763 1417 578 1167 l 507 1389 l 42 1389 z m 474 -229 b 614 -369 474 -312 529 -369 b 535 -485 625 -412 601 -482 b 585 -496 549 -494 568 -496 b 760 -278 694 -496 760 -383 b 614 -89 760 -183 717 -89 b 474 -229 529 -89 474 -146 z "},"ķ":{"ha":1183,"x_min":0,"x_max":0,"o":"m 42 1389 l 42 0 l 542 0 l 542 451 b 683 0 593 265 683 0 l 1183 0 b 1097 278 1168 36 1117 213 b 885 572 1042 464 1000 561 b 557 631 678 592 557 583 b 746 710 557 685 643 710 b 1136 465 917 710 1125 594 l 1150 465 l 1150 1010 b 963 1063 1117 1039 1053 1063 b 542 764 739 1063 601 907 l 542 1389 z m 469 -229 b 610 -369 469 -312 525 -369 b 531 -485 621 -412 597 -482 b 581 -496 544 -494 564 -496 b 756 -278 690 -496 756 -383 b 610 -89 756 -183 713 -89 b 469 -229 525 -89 469 -146 z "},"ĸ":{"ha":1183,"x_min":0,"x_max":0,"o":"m 542 0 l 542 451 b 683 0 593 265 683 0 l 1183 0 b 1097 278 1168 36 1117 213 b 885 572 1042 464 1000 561 b 557 631 678 592 557 583 b 746 710 557 685 643 710 b 1136 465 917 710 1125 594 l 1150 465 l 1150 1010 b 963 1063 1117 1039 1053 1063 b 542 764 739 1063 601 907 l 542 1389 l 42 1389 l 42 0 z "},"Ĺ":{"ha":1126,"x_min":0,"x_max":0,"o":"m 42 1389 l 42 0 l 1085 0 l 1085 694 l 1071 694 b 542 54 1021 315 813 92 l 542 1389 z m 56 1510 b 238 1472 108 1481 172 1472 b 522 1576 346 1472 449 1514 l 460 1679 b 118 1524 357 1593 236 1524 b 60 1529 99 1524 79 1525 z "},"ĺ":{"ha":561,"x_min":0,"x_max":0,"o":"m 376 -28 b 582 57 465 -28 540 13 b 518 263 538 101 518 185 l 518 1389 l 42 1389 l 42 351 b 376 -28 42 97 158 -28 z m 42 1510 b 224 1472 94 1481 158 1472 b 508 1576 332 1472 435 1514 l 446 1679 b 104 1524 343 1593 222 1524 b 46 1529 85 1524 65 1525 z "},"Ļ":{"ha":1126,"x_min":0,"x_max":0,"o":"m 42 0 l 1085 0 l 1085 694 l 1071 694 b 542 54 1021 315 813 92 l 542 1389 l 42 1389 z m 429 -229 b 569 -369 429 -312 486 -369 b 490 -485 581 -412 557 -482 b 540 -496 504 -494 525 -496 b 715 -278 651 -496 715 -383 b 569 -89 715 -183 672 -89 b 429 -229 486 -89 429 -146 z "},"ļ":{"ha":561,"x_min":0,"x_max":0,"o":"m 42 351 b 376 -28 42 97 158 -28 b 582 57 465 -28 540 13 b 518 263 538 101 518 185 l 518 1389 l 42 1389 z m 336 -396 b 257 -511 347 -439 324 -508 b 307 -522 271 -521 290 -522 b 482 -304 417 -522 482 -410 b 336 -115 482 -210 439 -115 b 196 -256 251 -115 196 -172 b 336 -396 196 -339 251 -396 z "},"Ľ":{"ha":1126,"x_min":0,"x_max":0,"o":"m 42 0 l 1085 0 l 1085 694 l 1071 694 b 542 54 1021 315 813 92 l 542 1389 l 42 1389 z m 783 1108 b 704 994 794 1065 771 996 b 754 982 718 983 738 982 b 929 1200 864 982 929 1094 b 783 1389 929 1296 886 1389 b 643 1250 699 1389 643 1332 b 783 1108 643 1165 699 1108 z "},"ľ":{"ha":1061,"x_min":0,"x_max":0,"o":"m 42 351 b 376 -28 42 97 158 -28 b 582 57 465 -28 540 13 b 518 263 538 101 518 185 l 518 1389 l 42 1389 z m 722 1136 b 643 1022 733 1093 710 1024 b 693 1010 657 1011 678 1010 b 868 1228 804 1010 868 1122 b 722 1417 868 1324 825 1417 b 582 1278 638 1417 582 1360 b 722 1136 582 1193 638 1136 z "},"Ŀ":{"ha":1126,"x_min":0,"x_max":0,"o":"m 42 1389 l 42 0 l 1085 0 l 1085 694 l 1071 694 b 542 54 1021 315 813 92 l 542 1389 z m 794 832 b 939 978 874 832 939 897 b 794 1122 939 1057 874 1122 b 649 978 714 1122 649 1057 b 794 832 649 897 714 832 z "},"ŀ":{"ha":561,"x_min":0,"x_max":0,"o":"m 42 351 b 376 -28 42 97 158 -28 b 582 57 465 -28 540 13 b 518 263 538 101 518 185 l 518 1389 l 42 1389 z m 707 628 b 851 774 786 628 851 693 b 707 918 851 853 786 918 b 561 774 626 918 561 853 b 707 628 561 693 626 628 z "},"Ł":{"ha":1126,"x_min":0,"x_max":0,"o":"m 542 832 l 542 1389 l 42 1389 l 42 832 l 0 832 l 0 793 l 42 793 l 42 0 l 1085 0 l 1085 694 l 1071 694 b 542 54 1021 315 813 92 l 542 793 l 804 793 l 804 832 z "},"ł":{"ha":561,"x_min":0,"x_max":0,"o":"m 42 764 l 42 351 b 376 -28 42 97 158 -28 b 582 57 465 -28 540 13 b 518 263 538 101 518 185 l 518 764 l 561 764 l 561 803 l 518 803 l 518 1389 l 42 1389 l 42 803 l 0 803 l 0 764 z "},"Ń":{"ha":1192,"x_min":0,"x_max":0,"o":"m 42 1389 l 42 0 l 317 0 b 350 136 333 11 350 51 b 92 1168 350 424 92 725 l 92 1271 l 621 0 l 1150 0 l 1150 1389 l 875 1389 b 842 1253 858 1378 842 1338 b 1100 221 842 965 1100 664 l 1100 119 l 567 1389 z m 544 1472 b 829 1576 653 1472 756 1514 l 767 1679 b 425 1524 664 1593 543 1524 b 367 1529 406 1524 386 1525 l 363 1510 b 544 1472 415 1481 479 1472 z "},"ń":{"ha":1201,"x_min":0,"x_max":0,"o":"m 42 0 l 542 0 l 542 792 b 600 926 542 851 542 926 b 658 792 654 926 658 869 l 658 0 l 1160 0 l 1160 735 b 831 1063 1160 892 1076 1063 b 542 972 703 1063 604 1022 l 542 1035 l 42 1035 z m 550 1117 b 835 1221 658 1117 761 1158 l 772 1324 b 431 1168 669 1238 549 1168 b 372 1174 411 1168 392 1169 l 368 1154 b 550 1117 421 1125 485 1117 z "},"Ņ":{"ha":1192,"x_min":0,"x_max":0,"o":"m 42 1389 l 42 0 l 317 0 b 350 136 333 11 350 51 b 92 1168 350 424 92 725 l 92 1271 l 621 0 l 1150 0 l 1150 1389 l 875 1389 b 842 1253 858 1378 842 1338 b 1100 221 842 965 1100 664 l 1100 119 l 567 1389 z m 565 -369 b 486 -485 576 -412 553 -482 b 536 -496 500 -494 519 -496 b 711 -278 646 -496 711 -383 b 565 -89 711 -183 668 -89 b 425 -229 481 -89 425 -146 b 565 -369 425 -312 481 -369 z "},"ņ":{"ha":1201,"x_min":0,"x_max":0,"o":"m 42 1035 l 42 0 l 542 0 l 542 792 b 600 926 542 851 542 926 b 658 792 654 926 658 869 l 658 0 l 1160 0 l 1160 735 b 831 1063 1160 892 1076 1063 b 542 972 703 1063 604 1022 l 542 1035 z m 461 -229 b 601 -369 461 -312 517 -369 b 522 -485 613 -412 589 -482 b 572 -496 536 -494 556 -496 b 747 -278 682 -496 747 -383 b 601 -89 747 -183 704 -89 b 461 -229 517 -89 461 -146 z "},"Ň":{"ha":1192,"x_min":0,"x_max":0,"o":"m 42 1389 l 42 0 l 317 0 b 350 136 333 11 350 51 b 92 1168 350 424 92 725 l 92 1271 l 621 0 l 1150 0 l 1150 1389 l 875 1389 b 842 1253 858 1378 842 1338 b 1100 221 842 965 1100 664 l 1100 119 l 567 1389 z m 596 1472 l 888 1717 l 740 1717 l 596 1596 l 451 1717 l 304 1717 z "},"ň":{"ha":1201,"x_min":0,"x_max":0,"o":"m 42 1035 l 42 0 l 542 0 l 542 792 b 600 926 542 851 542 926 b 658 792 654 926 658 869 l 658 0 l 1160 0 l 1160 735 b 831 1063 1160 892 1076 1063 b 542 972 703 1063 604 1022 l 542 1035 z m 601 1117 l 893 1361 l 746 1361 l 601 1240 l 457 1361 l 310 1361 z "},"ŉ":{"ha":1201,"x_min":0,"x_max":0,"o":"m 542 0 l 542 792 b 600 926 542 851 542 926 b 658 792 654 926 658 869 l 658 0 l 1160 0 l 1160 735 b 831 1063 1160 892 1076 1063 b 542 972 703 1063 604 1022 l 542 1035 l 42 1035 l 42 0 z m -164 782 b -243 668 -151 739 -175 669 b -192 656 -228 657 -208 656 b -17 874 -82 656 -17 768 b -164 1063 -17 969 -60 1063 b -304 924 -247 1063 -304 1006 b -164 782 -304 839 -247 782 z "},"Ŋ":{"ha":1192,"x_min":0,"x_max":0,"o":"m 317 0 b 350 136 333 11 350 51 b 92 1168 350 424 92 725 l 92 1296 l 564 376 l 486 118 b 814 -28 557 38 660 -28 b 1192 463 1053 -28 1192 131 l 1192 1389 l 496 1389 b 1018 161 661 1082 1022 346 b 940 68 1017 103 994 68 b 708 806 768 68 708 454 l 408 1389 l 42 1389 l 42 0 z "},"ŋ":{"ha":1181,"x_min":0,"x_max":0,"o":"m 542 0 l 542 792 b 600 926 542 851 542 926 b 658 792 654 926 658 869 l 658 639 l 660 200 b 1065 -339 660 -117 1065 -174 b 975 -417 1065 -385 1021 -417 b 633 8 772 -417 649 -174 l 619 8 l 619 -460 b 846 -572 671 -532 747 -572 b 1160 -162 1076 -572 1160 -339 l 1160 735 b 831 1063 1160 892 1076 1063 b 542 972 703 1063 604 1022 l 542 1035 l 42 1035 l 42 0 z "},"Ō":{"ha":1350,"x_min":0,"x_max":0,"o":"m 21 694 b 675 -28 21 261 296 -29 b 1329 694 1054 -26 1329 261 b 675 1417 1329 1128 1054 1415 b 21 694 296 1418 21 1128 z m 518 1342 b 836 735 618 1367 746 1125 b 835 43 926 347 935 69 b 501 650 736 17 593 260 b 518 1342 410 1040 417 1315 z m 376 1597 l 376 1472 l 975 1472 l 975 1597 z "},"ō":{"ha":1104,"x_min":0,"x_max":0,"o":"m 551 -28 b 1083 518 871 -28 1083 190 b 551 1063 1083 844 871 1063 b 21 518 233 1063 21 844 b 551 -28 21 190 233 -28 z m 497 149 l 497 518 l 497 888 b 553 1018 497 989 522 1018 b 608 888 583 1018 608 989 l 608 518 l 608 149 b 553 18 608 47 583 18 b 497 149 522 18 497 47 z m 853 1118 l 853 1243 l 254 1243 l 254 1118 z "},"Ŏ":{"ha":1350,"x_min":0,"x_max":0,"o":"m 21 694 b 675 -28 21 261 296 -29 b 1329 694 1054 -26 1329 261 b 675 1417 1329 1128 1054 1415 b 21 694 296 1418 21 1128 z m 518 1342 b 836 735 618 1367 746 1125 b 835 43 926 347 935 69 b 501 650 736 17 593 260 b 518 1342 410 1040 417 1315 z m 676 1471 b 1007 1624 800 1471 925 1522 l 917 1707 b 675 1601 861 1638 768 1601 b 433 1707 582 1601 490 1638 l 343 1624 b 676 1471 426 1521 551 1471 z "},"ŏ":{"ha":1104,"x_min":0,"x_max":0,"o":"m 551 -28 b 1083 518 871 -28 1083 190 b 551 1063 1083 844 871 1063 b 21 518 233 1063 21 844 b 551 -28 21 190 233 -28 z m 497 149 l 497 518 l 497 888 b 553 1018 497 989 522 1018 b 608 888 583 1018 608 989 l 608 518 l 608 149 b 553 18 608 47 583 18 b 497 149 522 18 497 47 z m 554 1117 b 885 1269 678 1117 803 1168 l 794 1353 b 553 1247 739 1283 646 1247 b 311 1353 460 1247 368 1283 l 221 1269 b 554 1117 304 1167 429 1117 z "},"Ő":{"ha":1350,"x_min":0,"x_max":0,"o":"m 21 694 b 675 -28 21 261 296 -29 b 1329 694 1054 -26 1329 261 b 675 1417 1329 1128 1054 1415 b 21 694 296 1418 21 1128 z m 518 1342 b 836 735 618 1367 746 1125 b 835 43 926 347 935 69 b 501 650 736 17 593 260 b 518 1342 410 1040 417 1315 z m 465 1490 l 469 1472 b 689 1708 586 1474 701 1565 l 586 1708 b 465 1490 583 1625 554 1518 z m 660 1490 l 664 1472 b 883 1708 781 1474 896 1565 l 781 1708 b 660 1490 778 1625 749 1518 z "},"ő":{"ha":1104,"x_min":0,"x_max":0,"o":"m 21 518 b 551 -28 21 190 233 -28 b 1083 518 871 -28 1083 190 b 551 1063 1083 844 871 1063 b 21 518 233 1063 21 844 z m 497 149 l 497 518 l 497 888 b 553 1018 497 989 522 1018 b 608 888 583 1018 608 989 l 608 518 l 608 149 b 553 18 608 47 583 18 b 497 149 522 18 497 47 z m 538 1136 l 542 1118 b 761 1354 658 1119 774 1211 l 658 1354 b 538 1136 656 1271 626 1164 z m 343 1136 l 347 1118 b 567 1354 464 1119 579 1211 l 464 1354 b 343 1136 461 1271 432 1164 z "},"Œ":{"ha":2014,"x_min":0,"x_max":0,"o":"m 696 -28 l 1972 0 l 1972 694 l 1958 694 b 1429 54 1958 331 1701 92 l 1429 746 b 1618 381 1504 722 1599 535 l 1632 381 l 1632 1138 l 1618 1138 b 1429 772 1599 983 1504 796 l 1429 1336 b 1958 813 1694 1311 1958 1151 l 1972 813 l 1972 1389 b 696 1417 1154 1389 1106 1389 b 42 694 317 1417 42 1128 b 696 -28 42 261 317 -28 z m 539 1342 b 857 735 639 1367 765 1125 b 856 43 949 347 957 69 b 522 650 757 18 613 260 b 539 1342 432 1040 438 1315 z "},"œ":{"ha":1649,"x_min":0,"x_max":0,"o":"m 21 518 b 551 -28 21 190 233 -28 b 867 63 674 -28 781 4 b 1213 -28 961 4 1079 -28 b 1583 358 1647 -28 1694 321 b 1361 196 1575 288 1449 196 b 1114 364 1233 196 1154 257 b 1272 332 1163 344 1218 332 b 1618 675 1444 332 1618 464 b 1165 1064 1618 956 1394 1064 b 854 981 1044 1064 939 1035 b 551 1063 771 1033 668 1063 b 21 518 233 1063 21 844 z m 553 1018 b 608 888 583 1018 608 989 l 608 518 l 608 149 b 553 18 608 47 583 18 b 497 149 522 18 497 47 l 497 518 l 497 888 b 553 1018 497 989 522 1018 z m 1200 989 b 1257 847 1228 989 1257 950 b 1096 421 1257 676 1190 478 b 1083 511 1090 449 1086 479 l 1083 518 b 1081 578 1083 539 1082 558 b 1200 989 1081 782 1121 989 z "},"Ŕ":{"ha":1236,"x_min":0,"x_max":0,"o":"m 508 0 l 508 224 b 178 1086 508 719 178 979 b 683 0 350 853 840 353 l 1201 0 b 1215 124 1214 47 1215 82 b 438 839 1215 579 697 588 b 858 708 517 764 735 708 b 1204 1064 1044 708 1204 836 b 813 1389 1204 1263 1010 1389 l 42 1389 l 42 0 z m 104 1329 l 301 1329 b 779 972 551 1329 779 1214 b 649 824 779 889 728 824 b 104 1329 449 824 129 1183 z m 436 1472 b 721 1576 544 1472 647 1514 l 658 1679 b 317 1524 556 1593 435 1524 b 258 1529 297 1524 278 1525 l 254 1510 b 436 1472 307 1481 371 1472 z "},"ŕ":{"ha":1038,"x_min":0,"x_max":0,"o":"m 42 1035 l 42 0 l 542 0 l 542 615 b 632 694 542 654 575 694 b 842 353 758 694 842 510 l 856 353 l 1038 988 b 878 1063 1021 1025 949 1063 b 542 694 679 1063 542 867 l 542 1035 z m 489 1118 b 774 1222 597 1118 700 1160 l 711 1325 b 369 1169 608 1239 488 1169 b 311 1175 350 1169 331 1171 l 307 1156 b 489 1118 360 1126 424 1118 z "},"Ŗ":{"ha":1236,"x_min":0,"x_max":0,"o":"m 508 0 l 508 224 b 178 1086 508 719 178 979 b 683 0 350 853 840 353 l 1201 0 b 1215 124 1214 47 1215 82 b 438 839 1215 579 697 588 b 858 708 517 764 735 708 b 1204 1064 1044 708 1204 836 b 813 1389 1204 1263 1010 1389 l 42 1389 l 42 0 z m 104 1329 l 301 1329 b 779 972 551 1329 779 1214 b 649 824 779 889 728 824 b 104 1329 449 824 129 1183 z m 614 -369 b 535 -485 625 -412 601 -482 b 585 -496 549 -494 568 -496 b 760 -278 694 -496 760 -383 b 614 -89 760 -183 717 -89 b 474 -229 529 -89 474 -146 b 614 -369 474 -312 529 -369 z "},"ŗ":{"ha":1038,"x_min":0,"x_max":0,"o":"m 542 0 l 542 615 b 632 694 542 654 575 694 b 842 353 758 694 842 510 l 856 353 l 1038 988 b 878 1063 1021 1025 949 1063 b 542 694 679 1063 542 867 l 542 1035 l 42 1035 l 42 0 z m 293 -369 b 214 -485 304 -412 281 -482 b 264 -496 228 -494 247 -496 b 439 -278 374 -496 439 -383 b 293 -89 439 -183 396 -89 b 153 -229 208 -89 153 -146 b 293 -369 153 -312 208 -369 z "},"Ř":{"ha":1236,"x_min":0,"x_max":0,"o":"m 508 0 l 508 224 b 178 1086 508 719 178 979 b 683 0 350 853 840 353 l 1201 0 b 1215 124 1214 47 1215 82 b 438 839 1215 579 697 588 b 858 708 517 764 735 708 b 1204 1064 1044 708 1204 836 b 813 1389 1204 1263 1010 1389 l 42 1389 l 42 0 z m 301 1329 b 779 972 551 1329 779 1214 b 649 824 779 889 728 824 b 104 1329 449 824 129 1183 z m 488 1472 l 779 1717 l 632 1717 l 488 1596 l 343 1717 l 196 1717 z "},"ř":{"ha":1038,"x_min":0,"x_max":0,"o":"m 542 0 l 542 615 b 632 694 542 654 575 694 b 842 353 758 694 842 510 l 856 353 l 1038 988 b 878 1063 1021 1025 949 1063 b 542 694 679 1063 542 867 l 542 1035 l 42 1035 l 42 0 z m 540 1118 l 832 1363 l 685 1363 l 540 1242 l 396 1363 l 249 1363 z "},"Ś":{"ha":1200,"x_min":0,"x_max":0,"o":"m 21 451 b 604 -28 21 135 311 -29 b 1179 457 992 -26 1179 185 b 190 1288 1179 1092 190 1025 b 222 1329 190 1301 204 1329 b 900 1069 408 1329 639 1069 b 1139 1293 993 1069 1139 1153 b 1113 1389 1139 1329 1129 1358 l 208 1389 b 39 1136 121 1389 39 1249 b 240 754 39 975 122 853 b 21 451 113 706 21 581 z m 1000 206 b 865 97 1000 147 946 97 b 279 724 572 97 285 539 b 1000 206 564 507 1000 400 z m 549 1472 b 833 1576 657 1472 760 1514 l 771 1679 b 429 1524 668 1593 547 1524 b 371 1529 410 1524 390 1525 l 367 1510 b 549 1472 419 1481 483 1472 z "},"ś":{"ha":1014,"x_min":0,"x_max":0,"o":"m 21 722 b 800 117 21 258 800 263 b 735 68 800 89 783 68 b 142 425 563 68 242 269 b 25 260 72 421 25 339 b 492 -28 25 74 238 -28 b 993 349 801 -28 993 101 b 140 896 993 815 140 788 b 218 928 140 928 186 928 b 863 667 374 928 794 774 b 978 814 931 676 978 744 b 508 1063 978 1004 718 1063 b 21 722 219 1063 21 954 z m 274 1156 b 456 1118 326 1126 390 1118 b 740 1222 564 1118 667 1160 l 678 1325 b 336 1169 575 1239 454 1169 b 278 1175 317 1169 297 1171 z "},"Ŝ":{"ha":1200,"x_min":0,"x_max":0,"o":"m 21 451 b 604 -28 21 135 311 -29 b 1179 457 992 -26 1179 185 b 190 1288 1179 1092 190 1025 b 222 1329 190 1301 204 1329 b 900 1069 408 1329 639 1069 b 1139 1293 993 1069 1139 1153 b 1113 1389 1139 1329 1129 1358 l 208 1389 b 39 1136 121 1389 39 1249 b 240 754 39 975 122 853 b 21 451 113 706 21 581 z m 1000 206 b 865 97 1000 147 946 97 b 279 724 572 97 285 539 b 1000 206 564 507 1000 400 z m 456 1472 l 600 1593 l 744 1472 l 892 1472 l 600 1717 l 308 1472 z "},"ŝ":{"ha":1014,"x_min":0,"x_max":0,"o":"m 21 722 b 800 117 21 258 800 263 b 735 68 800 89 783 68 b 142 425 563 68 242 269 b 25 260 72 421 25 339 b 492 -28 25 74 238 -28 b 993 349 801 -28 993 101 b 140 896 993 815 140 788 b 218 928 140 928 186 928 b 863 667 374 928 794 774 b 978 814 931 676 978 744 b 508 1063 978 1004 718 1063 b 21 722 219 1063 21 954 z m 215 1118 l 363 1118 l 507 1239 l 651 1118 l 799 1118 l 507 1363 z "},"Ş":{"ha":1200,"x_min":0,"x_max":0,"o":"m 21 451 b 579 -28 21 143 294 -18 l 517 -176 l 532 -192 b 568 -175 540 -182 549 -175 b 621 -247 599 -175 621 -201 b 538 -340 621 -297 582 -340 b 475 -279 503 -340 481 -318 b 439 -350 458 -289 439 -319 b 575 -469 439 -411 492 -469 b 758 -287 675 -469 758 -389 b 631 -131 758 -186 706 -131 b 565 -147 604 -131 583 -136 l 619 -28 b 1179 457 997 -22 1179 188 b 190 1288 1179 1092 190 1025 b 222 1329 190 1301 204 1329 b 900 1069 408 1329 639 1069 b 1139 1293 993 1069 1139 1153 b 1113 1389 1139 1329 1129 1358 l 208 1389 b 39 1136 121 1389 39 1249 b 240 754 39 975 122 853 b 21 451 113 706 21 581 z m 1000 206 b 865 97 1000 147 946 97 b 279 724 572 97 285 539 b 1000 206 564 507 1000 400 z "},"ş":{"ha":1014,"x_min":0,"x_max":0,"o":"m 21 722 b 800 117 21 258 800 263 b 735 68 800 89 783 68 b 142 425 563 68 242 269 b 25 260 72 421 25 339 b 471 -28 25 79 225 -22 l 407 -176 l 422 -192 b 458 -175 431 -182 439 -175 b 511 -247 489 -175 511 -201 b 428 -340 511 -297 472 -340 b 365 -279 393 -340 371 -318 b 329 -350 349 -289 329 -319 b 465 -469 329 -411 382 -469 b 649 -287 565 -469 649 -389 b 521 -131 649 -186 596 -131 b 456 -147 494 -131 474 -136 l 510 -28 b 993 349 810 -22 993 107 b 140 896 993 815 140 788 b 218 928 140 928 186 928 b 863 667 374 928 794 774 b 978 814 931 676 978 744 b 508 1063 978 1004 718 1063 b 21 722 219 1063 21 954 z "},"Š":{"ha":1200,"x_min":0,"x_max":0,"o":"m 21 451 b 604 -28 21 135 311 -29 b 1179 457 992 -26 1179 185 b 190 1288 1179 1092 190 1025 b 222 1329 190 1301 204 1329 b 900 1069 408 1329 639 1069 b 1139 1293 993 1069 1139 1153 b 1113 1389 1139 1329 1129 1358 l 208 1389 b 39 1136 121 1389 39 1249 b 240 754 39 975 122 853 b 21 451 113 706 21 581 z m 1000 206 b 865 97 1000 147 946 97 b 279 724 572 97 285 539 b 1000 206 564 507 1000 400 z m 600 1472 l 892 1717 l 744 1717 l 600 1596 l 456 1717 l 308 1717 z "},"š":{"ha":1014,"x_min":0,"x_max":0,"o":"m 21 722 b 800 117 21 258 800 263 b 735 68 800 89 783 68 b 142 425 563 68 242 269 b 25 260 72 421 25 339 b 492 -28 25 74 238 -28 b 993 349 801 -28 993 101 b 140 896 993 815 140 788 b 218 928 140 928 186 928 b 863 667 374 928 794 774 b 978 814 931 676 978 744 b 508 1063 978 1004 718 1063 b 21 722 219 1063 21 954 z m 507 1118 l 799 1363 l 651 1363 l 507 1242 l 363 1363 l 215 1363 z "},"Ţ":{"ha":1192,"x_min":0,"x_max":0,"o":"m 28 1389 l 28 501 l 63 501 b 563 1346 63 1000 363 1294 b 199 0 571 856 347 190 l 1000 0 b 628 1346 851 190 628 856 b 1129 501 829 1294 1129 1000 l 1164 501 l 1164 1389 z m 599 -368 b 519 -483 610 -411 586 -481 b 569 -494 533 -493 553 -494 b 744 -276 679 -494 744 -382 b 599 -87 744 -182 701 -87 b 458 -228 514 -87 458 -144 b 599 -368 458 -311 514 -368 z "},"ţ":{"ha":610,"x_min":0,"x_max":0,"o":"m -14 1033 l -14 979 l 58 979 l 58 351 b 393 -28 58 97 175 -28 b 599 57 482 -28 557 13 b 535 263 554 101 535 185 l 535 979 l 610 979 l 610 1035 l 535 1035 l 535 1389 l 521 1389 b -14 1033 446 1268 169 1081 z m 233 -257 b 374 -397 233 -340 289 -397 b 294 -512 385 -440 361 -510 b 344 -524 308 -522 328 -524 b 519 -306 454 -524 519 -411 b 374 -117 519 -211 476 -117 b 233 -257 289 -117 233 -174 z "},"Ť":{"ha":1192,"x_min":0,"x_max":0,"o":"m 28 1389 l 28 501 l 63 501 b 563 1346 63 1000 363 1294 b 199 0 571 856 347 190 l 1000 0 b 628 1346 851 190 628 856 b 1129 501 829 1294 1129 1000 l 1164 501 l 1164 1389 z m 596 1472 l 888 1717 l 740 1717 l 596 1596 l 451 1717 l 304 1717 z "},"ť":{"ha":1110,"x_min":0,"x_max":0,"o":"m 58 979 l 58 351 b 393 -28 58 97 175 -28 b 599 57 482 -28 557 13 b 535 263 554 101 535 185 l 535 979 l 610 979 l 610 1035 l 535 1035 l 535 1389 l 521 1389 b -14 1033 446 1268 169 1081 l -14 979 z m 751 1136 b 672 1022 764 1093 739 1024 b 724 1010 688 1011 707 1010 b 899 1228 833 1010 899 1122 b 751 1417 899 1324 856 1417 b 611 1278 668 1417 611 1360 b 751 1136 611 1193 668 1136 z "},"Ŧ":{"ha":1192,"x_min":0,"x_max":0,"o":"m 63 501 b 563 1346 63 1000 363 1294 b 472 679 567 1139 528 900 l 260 679 l 260 640 l 461 640 b 199 0 386 354 281 106 l 1000 0 b 736 640 918 106 813 354 l 942 640 l 942 679 l 725 679 b 628 1346 668 900 628 1139 b 1129 501 829 1294 1129 1000 l 1164 501 l 1164 1389 l 28 1389 l 28 501 z "},"ŧ":{"ha":610,"x_min":0,"x_max":0,"o":"m -14 979 l 58 979 l 58 679 l 0 679 l 0 640 l 58 640 l 58 351 b 393 -28 58 97 175 -28 b 599 57 482 -28 557 13 b 535 263 554 101 535 185 l 535 640 l 610 640 l 610 679 l 535 679 l 535 979 l 610 979 l 610 1035 l 535 1035 l 535 1389 l 521 1389 b -14 1033 446 1268 169 1081 z "},"Ũ":{"ha":1161,"x_min":0,"x_max":0,"o":"m 42 1389 l 42 471 b 483 0 42 274 140 0 l 1119 0 l 1119 1389 l 619 1389 l 619 128 b 408 79 565 93 493 79 b 161 354 214 79 161 261 b 517 1275 161 642 514 999 b 496 1389 517 1314 511 1353 z m 263 1482 b 390 1531 289 1507 336 1531 b 772 1472 556 1531 626 1472 b 900 1521 826 1472 874 1496 l 900 1654 b 772 1606 874 1629 826 1606 b 390 1664 626 1606 556 1664 b 263 1615 336 1664 289 1640 z "},"ũ":{"ha":1201,"x_min":0,"x_max":0,"o":"m 42 300 b 371 -28 42 143 125 -28 b 660 63 500 -28 597 13 l 660 0 l 1160 0 l 1160 1035 l 660 1035 l 660 243 b 601 108 660 183 660 108 b 543 243 547 108 543 165 l 543 1035 l 42 1035 z m 283 1261 l 283 1128 b 411 1176 310 1153 357 1176 b 793 1118 576 1176 647 1118 b 921 1167 847 1118 894 1142 l 921 1300 b 793 1251 894 1275 847 1251 b 411 1310 647 1251 576 1310 b 283 1261 357 1310 310 1286 z "},"Ū":{"ha":1161,"x_min":0,"x_max":0,"o":"m 42 1389 l 42 471 b 483 0 42 274 140 0 l 1119 0 l 1119 1389 l 619 1389 l 619 128 b 408 79 565 93 493 79 b 161 354 214 79 161 261 b 517 1275 161 642 514 999 b 496 1389 517 1314 511 1353 z m 881 1472 l 881 1597 l 282 1597 l 282 1472 z "},"ū":{"ha":1201,"x_min":0,"x_max":0,"o":"m 371 -28 b 660 63 500 -28 597 13 l 660 0 l 1160 0 l 1160 1035 l 660 1035 l 660 243 b 601 108 660 183 660 108 b 543 243 547 108 543 165 l 543 1035 l 42 1035 l 42 300 b 371 -28 42 143 125 -28 z m 303 1118 l 901 1118 l 901 1243 l 303 1243 z "},"Ŭ":{"ha":1161,"x_min":0,"x_max":0,"o":"m 42 1389 l 42 471 b 483 0 42 274 140 0 l 1119 0 l 1119 1389 l 619 1389 l 619 128 b 408 79 565 93 493 79 b 161 354 214 79 161 261 b 517 1275 161 642 514 999 b 496 1389 517 1314 511 1353 z m 249 1624 b 582 1471 332 1521 457 1469 b 913 1624 706 1472 831 1522 l 822 1707 b 581 1601 767 1638 674 1601 b 339 1707 488 1601 396 1638 z "},"ŭ":{"ha":1201,"x_min":0,"x_max":0,"o":"m 42 300 b 371 -28 42 143 125 -28 b 660 63 500 -28 597 13 l 660 0 l 1160 0 l 1160 1035 l 660 1035 l 660 243 b 601 108 660 183 660 108 b 543 243 547 108 543 165 l 543 1035 l 42 1035 z m 269 1269 b 603 1117 353 1167 478 1115 b 933 1269 726 1118 851 1168 l 843 1353 b 601 1247 788 1283 694 1247 b 360 1353 508 1247 417 1283 z "},"Ů":{"ha":1161,"x_min":0,"x_max":0,"o":"m 42 471 b 483 0 42 274 140 0 l 1119 0 l 1119 1389 l 619 1389 l 619 128 b 408 79 565 93 493 79 b 161 354 214 79 161 261 b 517 1275 161 642 514 999 b 496 1389 517 1314 511 1353 l 42 1389 z m 581 1417 b 771 1608 685 1417 771 1503 b 581 1799 771 1713 685 1799 b 389 1608 475 1799 389 1713 b 581 1417 389 1503 475 1417 z m 435 1610 b 581 1754 435 1689 500 1754 b 725 1610 660 1754 725 1689 b 581 1464 725 1529 660 1464 b 435 1610 500 1464 435 1529 z "},"ů":{"ha":1201,"x_min":0,"x_max":0,"o":"m 42 300 b 371 -28 42 143 125 -28 b 660 63 500 -28 597 13 l 660 0 l 1160 0 l 1160 1035 l 660 1035 l 660 243 b 601 108 660 183 660 108 b 543 243 547 108 543 165 l 543 1035 l 42 1035 z m 601 1063 b 792 1254 706 1063 792 1149 b 601 1444 792 1358 706 1444 b 410 1254 496 1444 410 1358 b 601 1063 410 1149 496 1063 z m 601 1400 b 746 1256 681 1400 746 1335 b 601 1110 746 1175 681 1110 b 456 1256 521 1110 456 1175 b 601 1400 456 1335 521 1400 z "},"Ű":{"ha":1161,"x_min":0,"x_max":0,"o":"m 42 1389 l 42 471 b 483 0 42 274 140 0 l 1119 0 l 1119 1389 l 619 1389 l 619 128 b 408 79 565 93 493 79 b 161 354 214 79 161 261 b 517 1275 161 642 514 999 b 496 1389 517 1314 511 1353 z m 565 1490 l 569 1472 b 789 1708 686 1474 801 1565 l 686 1708 b 565 1490 683 1625 654 1518 z m 375 1472 b 594 1708 492 1474 607 1565 l 492 1708 b 371 1490 489 1625 460 1518 z "},"ű":{"ha":1201,"x_min":0,"x_max":0,"o":"m 42 300 b 371 -28 42 143 125 -28 b 660 63 500 -28 597 13 l 660 0 l 1160 0 l 1160 1035 l 660 1035 l 660 243 b 601 108 660 183 660 108 b 543 243 547 108 543 165 l 543 1035 l 42 1035 z m 590 1118 b 810 1354 707 1119 822 1211 l 707 1354 b 586 1136 704 1271 675 1164 z m 396 1118 b 615 1354 513 1119 628 1211 l 513 1354 b 392 1136 510 1271 481 1164 z "},"Ų":{"ha":1161,"x_min":0,"x_max":0,"o":"m 42 471 b 483 0 42 274 140 0 l 821 0 b 746 -222 769 -61 746 -146 b 942 -442 746 -339 814 -442 b 1094 -283 1028 -442 1094 -371 b 1042 -185 1094 -236 1074 -199 b 938 -271 1026 -228 990 -271 b 821 -129 867 -271 821 -206 b 864 0 821 -78 836 -36 l 1119 0 l 1119 1389 l 619 1389 l 619 128 b 408 79 565 93 493 79 b 161 354 214 79 161 261 b 517 1275 161 642 514 999 b 496 1389 517 1314 511 1353 l 42 1389 z "},"ų":{"ha":1201,"x_min":0,"x_max":0,"o":"m 42 300 b 371 -28 42 143 125 -28 b 660 63 500 -28 597 13 l 660 0 l 872 0 b 797 -222 821 -61 797 -146 b 993 -442 797 -339 865 -442 b 1146 -283 1079 -442 1146 -371 b 1093 -185 1146 -236 1125 -199 b 989 -271 1078 -228 1042 -271 b 872 -129 918 -271 872 -206 b 915 0 872 -78 888 -36 l 1160 0 l 1160 1035 l 660 1035 l 660 243 b 601 108 660 183 660 108 b 543 243 547 108 543 165 l 543 1035 l 42 1035 z "},"Ŵ":{"ha":1982,"x_min":0,"x_max":0,"o":"m 642 -28 l 990 740 l 1339 -28 l 1982 1389 l 1497 1389 b 1449 1307 1467 1389 1449 1346 b 1625 799 1449 1161 1625 1031 b 1553 590 1625 711 1601 657 l 1192 1389 l 697 1389 b 928 799 775 1218 928 910 b 856 590 928 711 904 657 l 494 1389 l 0 1389 z m 700 1472 l 847 1472 l 992 1593 l 1136 1472 l 1283 1472 l 992 1717 z "},"ŵ":{"ha":1781,"x_min":0,"x_max":0,"o":"m 0 1035 l 568 -28 l 890 575 l 1213 -28 l 1781 1035 l 1356 1035 b 1322 990 1340 1035 1322 1017 b 1488 642 1322 863 1488 776 b 1431 489 1488 594 1463 529 l 1139 1035 l 644 1035 l 824 700 l 843 642 b 786 489 843 594 818 529 l 494 1035 z m 599 1118 l 746 1118 l 890 1239 l 1035 1118 l 1182 1118 l 890 1363 z "},"Ŷ":{"ha":1368,"x_min":0,"x_max":0,"o":"m 0 1389 l 443 563 l 442 0 l 924 0 l 925 563 l 1368 1389 l 867 1389 b 808 1310 832 1389 808 1349 b 943 808 808 1179 943 1046 b 897 625 943 744 917 664 l 482 1389 z m 540 1472 l 685 1593 l 829 1472 l 976 1472 l 685 1717 l 393 1472 z "},"ŷ":{"ha":1136,"x_min":0,"x_max":0,"o":"m 0 1035 l 560 -1 b 390 -307 508 -71 390 -160 b 618 -561 390 -451 508 -542 l 846 -236 b 596 14 767 -225 599 -118 l 1136 1035 l 711 1035 b 678 990 696 1035 678 1017 b 843 642 678 863 843 776 b 786 489 843 594 818 529 l 494 1035 z m 276 1117 l 424 1117 l 568 1238 l 713 1117 l 860 1117 l 568 1361 z "},"Ÿ":{"ha":1368,"x_min":0,"x_max":0,"o":"m 0 1389 l 443 563 l 442 0 l 924 0 l 925 563 l 1368 1389 l 867 1389 b 808 1310 832 1389 808 1349 b 943 808 808 1179 943 1046 b 897 625 943 744 917 664 l 482 1389 z m 717 1544 b 814 1472 717 1486 756 1472 b 911 1544 872 1472 911 1486 b 814 1617 911 1603 872 1617 b 717 1544 756 1617 717 1603 z m 553 1472 b 650 1544 611 1472 650 1486 b 553 1617 650 1603 611 1617 b 456 1544 494 1617 456 1603 b 553 1472 456 1486 494 1472 z "},"Ź":{"ha":1201,"x_min":0,"x_max":0,"o":"m 0 0 l 1160 0 l 1160 694 l 1146 694 b 524 49 1096 333 847 49 l 518 49 l 1154 1389 l 29 1389 l 29 818 l 43 818 b 606 1346 86 1207 407 1346 l 639 1346 z m 347 1510 b 529 1472 400 1481 464 1472 b 814 1576 638 1472 740 1514 l 751 1679 b 410 1524 649 1593 528 1524 b 351 1529 390 1524 371 1525 z "},"ź":{"ha":976,"x_min":0,"x_max":0,"o":"m 14 0 l 953 0 l 953 463 l 939 463 b 532 49 833 183 621 49 l 956 1035 l 32 1035 l 32 563 l 46 563 b 431 976 61 713 276 914 z m 433 1118 b 718 1222 542 1118 644 1160 l 656 1325 b 314 1169 553 1239 432 1169 b 256 1175 294 1169 275 1171 l 251 1156 b 433 1118 304 1126 368 1118 z "},"Ż":{"ha":1201,"x_min":0,"x_max":0,"o":"m 0 0 l 1160 0 l 1160 694 l 1146 694 b 524 49 1096 333 847 49 l 518 49 l 1154 1389 l 29 1389 l 29 818 l 43 818 b 606 1346 86 1207 407 1346 l 639 1346 z m 581 1472 b 725 1618 660 1472 725 1538 b 581 1763 725 1697 660 1763 b 435 1618 500 1763 435 1697 b 581 1472 435 1538 500 1472 z "},"ż":{"ha":976,"x_min":0,"x_max":0,"o":"m 953 0 l 953 463 l 939 463 b 532 49 833 183 621 49 l 956 1035 l 32 1035 l 32 563 l 46 563 b 431 976 61 713 276 914 l 14 0 z m 485 1118 b 629 1264 564 1118 629 1183 b 485 1408 629 1343 564 1408 b 339 1264 404 1408 339 1343 b 485 1118 339 1183 404 1118 z "},"Ž":{"ha":1201,"x_min":0,"x_max":0,"o":"m 0 0 l 1160 0 l 1160 694 l 1146 694 b 524 49 1096 333 847 49 l 518 49 l 1154 1389 l 29 1389 l 29 818 l 43 818 b 606 1346 86 1207 407 1346 l 639 1346 z m 581 1472 l 872 1717 l 725 1717 l 581 1596 l 436 1717 l 289 1717 z "},"ž":{"ha":976,"x_min":0,"x_max":0,"o":"m 14 0 l 953 0 l 953 463 l 939 463 b 532 49 833 183 621 49 l 956 1035 l 32 1035 l 32 563 l 46 563 b 431 976 61 713 276 914 z m 485 1118 l 776 1363 l 629 1363 l 485 1242 l 340 1363 l 193 1363 z "},"ȷ":{"ha":581,"x_min":0,"x_max":0,"o":"m 226 -581 b 540 -171 457 -581 540 -347 l 540 1035 l 40 1035 l 40 192 b 446 -347 40 -125 446 -182 b 356 -425 446 -393 401 -425 b 14 0 153 -425 29 -182 l 0 0 l 0 -468 b 226 -581 51 -540 128 -581 z "},"ˆ":{"ha":667,"x_min":0,"x_max":0,"o":"m 42 694 l 189 694 l 333 815 l 478 694 l 625 694 l 333 939 z "},"ˇ":{"ha":667,"x_min":0,"x_max":0,"o":"m 333 694 l 625 939 l 478 939 l 333 818 l 189 939 l 42 939 z "},"˘":{"ha":747,"x_min":0,"x_max":0,"o":"m 42 847 b 376 694 125 744 250 694 b 706 847 499 694 624 746 l 615 931 b 374 825 560 861 467 825 b 132 931 281 825 189 861 z "},"˙":{"ha":465,"x_min":0,"x_max":0,"o":"m 88 1264 b 233 1118 88 1183 153 1118 b 378 1264 313 1118 378 1183 b 233 1408 378 1343 313 1408 b 88 1264 153 1408 88 1343 z "},"˚":{"ha":465,"x_min":0,"x_max":0,"o":"m 233 639 b 424 831 338 639 424 725 b 233 1021 424 935 338 1021 b 42 831 128 1021 42 935 b 233 639 42 725 128 639 z m 88 832 b 233 976 88 911 153 976 b 378 832 313 976 378 911 b 233 686 378 751 313 686 b 88 832 153 686 88 751 z "},"˛":{"ha":432,"x_min":0,"x_max":0,"o":"m 42 -250 b 238 -469 42 -367 110 -469 b 390 -311 324 -469 390 -399 b 338 -212 390 -264 369 -226 b 233 -299 322 -256 286 -299 b 117 -157 163 -299 117 -233 b 183 0 117 -92 142 -42 l 143 0 b 42 -250 74 -62 42 -161 z "},"˜":{"ha":721,"x_min":0,"x_max":0,"o":"m 42 838 l 42 704 b 169 753 68 729 115 753 b 551 694 335 753 406 694 b 679 743 606 694 653 718 l 679 876 b 551 828 653 851 606 828 b 169 886 406 828 335 886 b 42 838 115 886 68 863 z "},"˝":{"ha":503,"x_min":0,"x_max":0,"o":"m 240 694 b 460 931 357 696 472 788 l 357 931 b 236 713 354 847 325 740 z m 46 694 b 265 931 163 696 278 788 l 163 931 b 42 713 160 847 131 740 z "},"̦":{"ha":500,"x_min":0,"x_max":0,"o":"m 253 -397 b 174 -512 264 -440 240 -510 b 224 -524 188 -522 207 -524 b 399 -306 333 -524 399 -411 b 253 -117 399 -211 356 -117 b 113 -257 168 -117 113 -174 b 253 -397 113 -340 168 -397 z "},"–":{"ha":778,"x_min":0,"x_max":0,"o":"m 42 661 l 42 383 l 736 383 l 736 661 z "},"—":{"ha":1056,"x_min":0,"x_max":0,"o":"m 42 661 l 42 383 l 1014 383 l 1014 661 z "},"‘":{"ha":500,"x_min":0,"x_max":0,"o":"m 254 826 b 458 1029 376 826 458 908 b 254 1233 458 1151 376 1233 b 369 1400 238 1296 272 1397 b 296 1417 349 1415 319 1417 b 42 1100 136 1417 42 1254 b 254 826 42 963 104 826 z "},"’":{"ha":500,"x_min":0,"x_max":0,"o":"m 246 1010 b 131 843 263 947 228 846 b 204 826 151 828 181 826 b 458 1143 364 826 458 989 b 246 1417 458 1281 396 1417 b 42 1214 124 1417 42 1335 b 246 1010 42 1092 124 1010 z "},"‚":{"ha":500,"x_min":0,"x_max":0,"o":"m 246 -29 b 131 -196 263 -92 228 -193 b 204 -212 151 -211 181 -212 b 458 106 364 -212 458 -50 b 246 379 458 243 396 379 b 42 176 124 379 42 297 b 246 -29 42 54 124 -29 z "},"“":{"ha":954,"x_min":0,"x_max":0,"o":"m 496 1100 b 708 826 496 963 558 826 b 913 1029 831 826 913 908 b 708 1233 913 1151 831 1233 b 824 1400 692 1296 726 1397 b 750 1417 803 1415 774 1417 b 496 1100 590 1417 496 1254 z m 254 826 b 458 1029 376 826 458 908 b 254 1233 458 1151 376 1233 b 369 1400 238 1296 272 1397 b 296 1417 349 1415 319 1417 b 42 1100 136 1417 42 1254 b 254 826 42 963 104 826 z "},"”":{"ha":499,"x_min":0,"x_max":0,"o":"m 496 1214 b 700 1010 496 1092 578 1010 b 585 843 717 947 682 846 b 658 826 606 828 635 826 b 913 1143 818 826 913 989 b 700 1417 913 1281 850 1417 b 496 1214 578 1417 496 1335 z m 42 1214 b 246 1010 42 1092 124 1010 b 131 843 263 947 228 846 b 204 826 151 828 181 826 b 458 1143 364 826 458 989 b 246 1417 458 1281 396 1417 b 42 1214 124 1417 42 1335 z "},"„":{"ha":954,"x_min":0,"x_max":0,"o":"m 42 176 b 246 -29 42 54 124 -29 b 131 -196 263 -92 228 -193 b 204 -212 151 -211 181 -212 b 458 106 364 -212 458 -50 b 246 379 458 243 396 379 b 42 176 124 379 42 297 z m 496 176 b 700 -29 496 54 578 -29 b 585 -196 717 -92 682 -193 b 658 -212 606 -211 635 -212 b 913 106 818 -212 913 -50 b 700 379 913 243 850 379 b 496 176 578 379 496 297 z "},"†":{"ha":950,"x_min":0,"x_max":0,"o":"m 42 1122 l 42 719 b 447 894 114 797 275 890 b 253 0 438 501 353 206 l 696 0 b 501 894 596 206 511 501 b 908 719 674 892 836 797 l 908 1122 b 500 947 836 1044 674 950 l 500 972 b 675 1389 500 1149 596 1315 l 274 1389 b 449 972 353 1315 449 1149 l 449 947 b 42 1122 276 951 114 1044 z "},"‡":{"ha":950,"x_min":0,"x_max":0,"o":"m 42 1122 l 42 719 b 449 894 114 797 276 892 l 449 463 b 42 638 276 467 114 560 l 42 235 b 449 410 114 313 276 407 b 274 0 446 236 351 72 l 675 0 b 500 410 597 72 503 236 b 908 235 674 407 836 313 l 908 638 b 500 463 836 560 674 465 l 500 894 b 908 719 674 892 836 797 l 908 1122 b 500 947 836 1044 674 950 l 500 972 b 675 1389 500 1149 596 1315 l 274 1389 b 449 972 353 1315 449 1149 l 449 947 b 42 1122 276 951 114 1044 z "},"•":{"ha":522,"x_min":0,"x_max":0,"o":"m 42 640 b 246 436 42 518 124 436 b 449 640 367 436 449 518 b 246 843 449 761 367 843 b 42 640 124 843 42 761 z "},"…":{"ha":1471,"x_min":0,"x_max":0,"o":"m 1226 -28 b 1429 176 1347 -28 1429 54 b 1226 379 1429 297 1347 379 b 1022 176 1104 379 1022 297 b 1226 -28 1022 54 1104 -28 z m 736 -28 b 939 176 857 -28 939 54 b 736 379 939 297 857 379 b 532 176 614 379 532 297 b 736 -28 532 54 614 -28 z m 246 -28 b 449 176 367 -28 449 54 b 246 379 449 297 367 379 b 42 176 124 379 42 297 b 246 -28 42 54 124 -28 z "},"‰":{"ha":2038,"x_min":0,"x_max":0,"o":"m 42 1028 b 350 639 42 794 171 639 b 658 1028 529 639 658 794 b 350 1417 658 1261 529 1417 b 42 1028 171 1417 42 1261 z m 1378 361 b 1688 -28 1378 128 1508 -28 b 1996 361 1865 -28 1996 128 b 1688 750 1996 594 1865 750 b 1378 361 1508 750 1378 594 z m 707 361 b 1015 -28 707 128 836 -28 b 1324 361 1194 -28 1324 128 b 1015 750 1324 594 1194 750 b 707 361 836 750 707 594 z m 422 -117 l 996 1506 l 928 1506 l 354 -117 z m 303 1028 l 303 1217 b 350 1392 303 1378 324 1392 b 396 1217 375 1392 396 1378 l 396 839 b 350 664 396 678 375 664 b 303 839 324 664 303 678 z m 968 361 l 968 550 b 1014 725 968 711 989 725 b 1061 550 1040 725 1061 711 l 1061 361 l 1061 172 b 1014 -3 1061 11 1040 -3 b 968 172 989 -3 968 11 z m 1640 550 b 1686 725 1640 711 1661 725 b 1732 550 1711 725 1732 711 l 1732 172 b 1686 -3 1732 11 1711 -3 b 1640 172 1661 -3 1640 11 z "},"‹":{"ha":525,"x_min":0,"x_max":0,"o":"m 471 15 b 483 49 481 19 483 36 b 124 346 483 147 347 346 b 483 646 347 351 483 547 b 471 679 483 658 481 675 b 42 347 403 532 185 386 b 471 15 185 308 403 163 z "},"›":{"ha":525,"x_min":0,"x_max":0,"o":"m 42 646 b 401 346 42 547 178 351 b 42 49 178 346 42 147 b 54 15 42 36 44 19 b 483 347 122 163 340 308 b 54 679 340 386 122 532 b 42 646 44 675 42 658 z "},"⁄":{"ha":725,"x_min":0,"x_max":0,"o":"m 42 -117 l 110 -117 l 683 1506 l 615 1506 z "},"⁴":{"ha":738,"x_min":0,"x_max":0,"o":"m 381 763 l 381 639 l 624 639 l 624 763 l 696 763 l 696 789 l 624 789 l 624 1014 l 381 1014 l 381 789 l 300 789 b 192 886 232 789 192 832 b 563 1290 192 1021 563 1090 b 517 1389 563 1326 550 1354 l 242 1389 b 283 1279 271 1371 283 1325 b 42 763 283 1114 157 913 z "},"€":{"ha":1229,"x_min":0,"x_max":0,"o":"m 21 694 b 675 -28 21 279 282 -28 b 1201 411 996 -28 1251 165 b 971 311 1182 343 1075 311 b 501 600 804 310 621 413 l 756 600 l 756 639 l 478 639 b 432 735 461 669 446 700 l 756 735 l 756 774 l 418 774 b 368 1088 386 865 368 971 b 521 1331 368 1236 426 1331 b 921 538 783 1331 906 721 l 935 538 l 1190 1268 b 675 1417 1190 1268 1029 1417 b 21 694 282 1417 21 1110 z "},"™":{"ha":1497,"x_min":0,"x_max":0,"o":"m 576 1389 l 576 774 l 669 774 b 685 808 676 778 685 790 b 599 1292 685 906 599 1056 l 599 1325 l 792 761 l 797 761 l 982 1300 l 982 774 l 1201 774 l 1203 1389 l 982 1389 l 888 1119 l 797 1389 z m 42 1389 l 42 996 l 57 996 b 279 1369 57 1217 190 1347 b 118 774 282 1153 183 857 l 472 774 b 308 1369 407 857 308 1153 b 531 996 397 1347 531 1217 l 546 996 l 546 1389 z "},"−":{"ha":579,"x_min":0,"x_max":0,"o":"m 42 661 l 42 622 l 538 622 l 538 661 z "},"≈":{"ha":588,"x_min":0,"x_max":0,"o":"m 42 603 b 72 574 42 588 54 574 b 142 625 63 597 76 625 b 446 574 246 625 340 574 b 546 629 521 574 546 604 b 515 657 546 643 532 657 b 446 613 525 633 511 613 b 142 664 343 613 249 664 b 42 603 67 664 42 626 z m 42 486 b 72 458 42 471 54 458 b 142 510 63 481 76 510 b 446 458 246 510 340 458 b 546 513 521 458 546 488 b 515 540 546 528 532 540 b 446 496 525 518 511 496 b 142 547 343 496 249 547 b 42 486 67 547 42 511 z "},"≠":{"ha":579,"x_min":0,"x_max":0,"o":"m 289 528 l 329 622 l 538 622 l 538 661 l 346 661 l 418 835 l 350 835 l 278 661 l 42 661 l 42 622 l 261 622 l 221 528 l 42 528 l 42 489 l 204 489 l 122 292 l 190 292 l 272 489 l 538 489 l 538 528 z "},"≤":{"ha":579,"x_min":0,"x_max":0,"o":"m 42 347 l 538 168 l 538 213 l 103 369 l 538 526 l 538 571 l 42 392 z m 42 0 l 538 0 l 538 39 l 42 39 z "},"≥":{"ha":579,"x_min":0,"x_max":0,"o":"m 476 371 l 42 214 l 42 169 l 538 349 l 538 393 l 42 571 l 42 526 z m 42 39 l 42 0 l 538 0 l 538 39 z "}}}
